<svg xmlns="http://www.w3.org/2000/svg" xmlns:xlink="http://www.w3.org/1999/xlink" viewBox="0 0 363.54 253.76"><defs><style>.cls-1{fill:none;}.cls-2{isolation:isolate;}.cls-3{fill:#c9c4c4;}.cls-4{fill:url(#radial-gradient);}.cls-5{clip-path:url(#clip-path);}.cls-12,.cls-13,.cls-14,.cls-17,.cls-18,.cls-19,.cls-6,.cls-7,.cls-8{mix-blend-mode:multiply;}.cls-6{fill:url(#radial-gradient-2);}.cls-7{fill:url(#radial-gradient-3);}.cls-8{fill:url(#radial-gradient-4);}.cls-9{fill:url(#radial-gradient-5);}.cls-10{fill:#ff0204;}.cls-11{clip-path:url(#clip-path-2);}.cls-12{fill:url(#radial-gradient-6);}.cls-13{fill:url(#radial-gradient-7);}.cls-14{fill:url(#radial-gradient-8);}.cls-15{fill:url(#radial-gradient-9);}.cls-16{clip-path:url(#clip-path-3);}.cls-17{fill:url(#radial-gradient-10);}.cls-18{fill:url(#radial-gradient-11);}.cls-19{fill:url(#radial-gradient-12);}.cls-20{fill:url(#radial-gradient-13);}.cls-21{opacity:0;}.cls-22{fill:#005cce;}.cls-23{opacity:0;}.cls-24{opacity:0;}.cls-25{opacity:0.01;}.cls-26{opacity:0.01;}.cls-27{opacity:0.02;}.cls-28{opacity:0.02;}.cls-29{opacity:0.03;}.cls-30{opacity:0.04;}.cls-31{opacity:0.05;}.cls-32{opacity:0.07;}.cls-33{opacity:0.08;}.cls-34{opacity:0.1;}.cls-35{opacity:0.13;}.cls-36{opacity:0.24;}.cls-37{fill:#f5f8fd;}.cls-38{font-size:59.6px;stroke:#034cff;letter-spacing:0em;}.cls-38,.cls-40{fill:#cadcf5;}.cls-38,.cls-40,.cls-41{stroke-miterlimit:10;font-family:MyriadPro-Regular, Myriad Pro;}.cls-39{letter-spacing:0em;}.cls-40{font-size:23.85px;}.cls-40,.cls-41{stroke:#2a76d8;}.cls-41{font-size:65.57px;fill:#dbe8f8;}.cls-42{letter-spacing:-0.03em;}</style><radialGradient id="radial-gradient" cx="93.46" cy="-16.05" r="38.57" gradientTransform="matrix(0.03, -1.35, 1.37, 0.01, 71.47, 199.54)" gradientUnits="userSpaceOnUse"><stop offset="0" stop-color="#fff"/><stop offset="1" stop-color="#e0e0e0"/></radialGradient><clipPath id="clip-path" transform="translate(-16.39 -0.61)"><path class="cls-1" d="M81.42,91.46a1.74,1.74,0,0,1-1.75,1.68l-55.85-.32a1.67,1.67,0,0,1-1.68-1.7l.74-35.78a1.75,1.75,0,0,1,1.76-1.68L80.48,54a1.68,1.68,0,0,1,1.68,1.7Z"/></clipPath><radialGradient id="radial-gradient-2" cx="346.22" cy="-184.72" r="16.88" gradientTransform="matrix(-1.7, -1.2, 0.17, -0.18, 665.08, 447.78)" gradientUnits="userSpaceOnUse"><stop offset="0" stop-color="#bcb7b5"/><stop offset="0.92" stop-color="#fff"/></radialGradient><radialGradient id="radial-gradient-3" cx="340.16" cy="362.53" r="16.89" gradientTransform="matrix(-1.13, 1.69, -0.31, -0.24, 578.69, -426.81)" xlink:href="#radial-gradient-2"/><radialGradient id="radial-gradient-4" cx="327.91" cy="-74.74" r="8.38" gradientTransform="matrix(-1.8, -1.48, 1.09, -1.16, 734, 470.47)" gradientUnits="userSpaceOnUse"><stop offset="0" stop-color="#bcb7b5"/><stop offset="0.22" stop-color="#d5d1d0"/><stop offset="0.49" stop-color="#eceaea"/><stop offset="0.73" stop-color="#fafafa"/><stop offset="0.92" stop-color="#fff"/></radialGradient><radialGradient id="radial-gradient-5" cx="101.87" cy="-3.96" r="38.57" gradientTransform="matrix(0.79, -1.11, 1.12, 0.76, -20.1, 166.35)" xlink:href="#radial-gradient"/><clipPath id="clip-path-2" transform="translate(-16.39 -0.61)"><path class="cls-1" d="M69.47,81.1a1.75,1.75,0,0,1-2.39.45l-45.68-31A1.67,1.67,0,0,1,21,48.17L41.88,18.61a1.74,1.74,0,0,1,2.39-.44L90,49.19a1.67,1.67,0,0,1,.41,2.35Z"/></clipPath><radialGradient id="radial-gradient-6" cx="300.58" cy="-145.82" r="16.89" gradientTransform="matrix(-1.05, -1.78, 0.23, -0.1, 408.48, 565.37)" xlink:href="#radial-gradient-2"/><radialGradient id="radial-gradient-7" cx="333.26" cy="117.96" r="16.89" gradientTransform="matrix(-1.71, 1.11, -0.19, -0.35, 686.01, -274.85)" xlink:href="#radial-gradient-2"/><radialGradient id="radial-gradient-8" cx="287.34" cy="-64.32" r="8.38" gradientTransform="matrix(-1.04, -2.08, 1.46, -0.64, 461.83, 613.41)" xlink:href="#radial-gradient-4"/><radialGradient id="radial-gradient-9" cx="160.98" cy="61.23" r="38.57" gradientTransform="matrix(1.2, -0.66, 0.65, 1.17, -159.94, 69.99)" xlink:href="#radial-gradient"/><clipPath id="clip-path-3" transform="translate(-16.39 -0.61)"><path class="cls-1" d="M71.72,69.67A1.71,1.71,0,0,1,69.39,69L42.71,21a1.68,1.68,0,0,1,.69-2.3L75.28,1.19a1.71,1.71,0,0,1,2.33.64l26.69,48a1.7,1.7,0,0,1-.69,2.3Z"/></clipPath><radialGradient id="radial-gradient-10" cx="247.97" cy="195.33" r="16.89" gradientTransform="matrix(0.07, -2.07, 0.25, 0.04, 9.83, 542.61)" xlink:href="#radial-gradient-2"/><radialGradient id="radial-gradient-11" cx="288.69" cy="-202.02" r="16.89" gradientTransform="matrix(-2.04, 0.06, 0.03, -0.39, 693.72, -33.42)" xlink:href="#radial-gradient-2"/><radialGradient id="radial-gradient-12" cx="239.74" cy="-6.13" r="8.38" gradientTransform="matrix(0.25, -2.32, 1.57, 0.21, 29.5, 611.05)" xlink:href="#radial-gradient-4"/><radialGradient id="radial-gradient-13" cx="223.36" cy="171.6" r="38.57" gradientTransform="matrix(1.37, 0.04, -0.06, 1.35, -201.77, -203.76)" xlink:href="#radial-gradient"/></defs><g class="cls-2"><g id="Layer_1" data-name="Layer 1"><path class="cls-3" d="M81.16,91.2a1.73,1.73,0,0,1-1.75,1.68l-55.85-.32a1.67,1.67,0,0,1-1.68-1.7l.75-35.78a1.78,1.78,0,0,1,1.75-1.74l55.85.32a1.73,1.73,0,0,1,1.68,1.76Z" transform="translate(-16.39 -0.61)"/><path class="cls-4" d="M81.42,91.46a1.74,1.74,0,0,1-1.75,1.68l-55.85-.32a1.67,1.67,0,0,1-1.68-1.7l.74-35.78a1.75,1.75,0,0,1,1.76-1.68L80.48,54a1.68,1.68,0,0,1,1.68,1.7Z" transform="translate(-16.39 -0.61)"/><path d="M24.75,89.73l0-1,6.78-1.06v.74l-1.3.18,0,1.21,1.29.18,0,.75Zm4.82,0,0-1L26,89.24h0Z" transform="translate(-16.39 -0.61)"/><path d="M32.75,89.25c1.08.52,1.41,1.61,2.46,1.62.71,0,1.25-.79.57-1.6.72-.8.21-1.59-.5-1.6C34.27,87.67,33.86,88.75,32.75,89.25Z" transform="translate(-16.39 -0.61)"/><path d="M37.1,89.85a1.16,1.16,0,0,1-.13-.57,1.08,1.08,0,0,1,.16-.57,2.24,2.24,0,0,1-1.33.56A2.19,2.19,0,0,1,37.1,89.85Z" transform="translate(-16.39 -0.61)"/><path d="M79.6,57.15l0,1L72.8,59.16v-.74l1.3-.18,0-1.21-1.29-.18,0-.75Zm-4.82,0,0,1,3.59-.5h0Z" transform="translate(-16.39 -0.61)"/><path d="M71.61,57.62C70.52,57.1,70.19,56,69.14,56c-.71,0-1.25.79-.57,1.6-.72.79-.21,1.59.5,1.6C70.08,59.21,70.49,58.13,71.61,57.62Z" transform="translate(-16.39 -0.61)"/><path d="M67.25,57a1.16,1.16,0,0,1,.13.57,1.08,1.08,0,0,1-.16.57,2.24,2.24,0,0,1,1.33-.56A2.19,2.19,0,0,1,67.25,57Z" transform="translate(-16.39 -0.61)"/><path d="M44.15,73.36c4,1.9,5.19,5.87,9,5.89,2.59,0,4.58-2.88,2.09-5.83,2.61-2.92.75-5.84-1.84-5.86C49.75,67.54,48.22,71.5,44.15,73.36Z" transform="translate(-16.39 -0.61)"/><path d="M60.11,75.53a4.25,4.25,0,0,1,.08-4.18,8.17,8.17,0,0,1-4.86,2.07A7.84,7.84,0,0,1,60.11,75.53Z" transform="translate(-16.39 -0.61)"/><g class="cls-5"><path class="cls-6" d="M16.54,44.05c1.63-1.67,15.78,6.07,31.62,17.3S75.49,83,73.86,84.68,58.08,78.62,42.25,67.4,14.92,45.73,16.54,44.05Z" transform="translate(-16.39 -0.61)"/><path class="cls-7" d="M62.82,87.56C59.9,85.3,66.06,70.72,76.57,55S98,28.33,100.88,30.59,97.65,47.44,87.14,63.17,65.74,89.83,62.82,87.56Z" transform="translate(-16.39 -0.61)"/><path class="cls-8" d="M46.78,59.07c5-5.38,15.87-4.18,24.22,2.68S82,78.52,77,83.9s-15.88,4.18-24.22-2.68S41.75,64.44,46.78,59.07Z" transform="translate(-16.39 -0.61)"/></g><path class="cls-3" d="M69.41,80.75a1.74,1.74,0,0,1-2.39.44l-45.68-31a1.66,1.66,0,0,1-.41-2.35L41.82,18.26a1.79,1.79,0,0,1,2.43-.5l45.67,31a1.71,1.71,0,0,1,.38,2.4Z" transform="translate(-16.39 -0.61)"/><path class="cls-9" d="M69.48,81.1a1.74,1.74,0,0,1-2.4.45l-45.67-31A1.67,1.67,0,0,1,21,48.17L41.88,18.61a1.75,1.75,0,0,1,2.4-.44L90,49.2a1.67,1.67,0,0,1,.42,2.35Z" transform="translate(-16.39 -0.61)"/><path class="cls-10" d="M60.15,52.9c-4.54.12-7.11,2.32-10.26.18-2.52-1.72.11-6.57,3.53-4.76-2.87-2.58.74-6.64,3.3-4.9C59.73,45.46,58.6,48.79,60.15,52.9Z" transform="translate(-16.39 -0.61)"/><path class="cls-10" d="M23.93,48.44l.55-.78,6.17,2.85-.43.61-1.17-.56-.7,1,.95.87-.43.61Zm3.94,2.68.6-.84-3.23-1.55h0Z" transform="translate(-16.39 -0.61)"/><path class="cls-10" d="M34,54.67c-1.55,0-2.42.79-3.49.06-.86-.58,0-2.23,1.2-1.62-1-.88.25-2.26,1.12-1.66C33.89,52.14,33.5,53.27,34,54.67Z" transform="translate(-16.39 -0.61)"/><path class="cls-10" d="M87.48,51.39l-.55.78-6.18-2.85.44-.61,1.16.56.71-1-1-.86.44-.61Zm-4-2.68-.59.84,3.23,1.55h0Z" transform="translate(-16.39 -0.61)"/><path class="cls-10" d="M77.38,45.16c1.54,0,2.42-.79,3.49-.06.86.58,0,2.23-1.2,1.62,1,.87-.25,2.26-1.13,1.66S77.9,46.56,77.38,45.16Z" transform="translate(-16.39 -0.61)"/><g class="cls-11"><path class="cls-12" d="M40,14c2.16-.9,11.89,11.84,21.72,28.45s16,30.79,13.88,31.69S63.7,62.32,53.87,45.72,37.83,14.92,40,14Z" transform="translate(-16.39 -0.61)"/><path class="cls-13" d="M64.38,72.45c-1.74-3.24,9.8-14.25,25.78-24.6S120.48,31.76,122.21,35s-9.8,14.25-25.77,24.59S66.11,75.69,64.38,72.45Z" transform="translate(-16.39 -0.61)"/><path class="cls-14" d="M61.39,39.83c6.77-3,16.14,2.43,20.94,12.06s3.2,19.82-3.57,22.79S62.61,72.24,57.82,62.62,54.62,42.79,61.39,39.83Z" transform="translate(-16.39 -0.61)"/></g><path class="cls-3" d="M71.83,69.31a1.71,1.71,0,0,1-2.33-.64l-26.69-48a1.7,1.7,0,0,1,.69-2.3L75.38.83a1.77,1.77,0,0,1,2.39.62l26.69,48a1.75,1.75,0,0,1-.75,2.34Z" transform="translate(-16.39 -0.61)"/><path class="cls-15" d="M71.72,69.67A1.72,1.72,0,0,1,69.39,69L42.71,21a1.68,1.68,0,0,1,.69-2.3L75.28,1.19a1.71,1.71,0,0,1,2.33.64l26.69,48a1.7,1.7,0,0,1-.69,2.3Z" transform="translate(-16.39 -0.61)"/><path d="M75.25,42.31a4.32,4.32,0,0,1,1.6-1.49A4.37,4.37,0,0,1,79,40.26a7.82,7.82,0,0,1-4.17-3.11A7.65,7.65,0,0,1,75.25,42.31Z" transform="translate(-16.39 -0.61)"/><path d="M74.75,37.06h0s.64-3.77-.55-5.91A2.4,2.4,0,0,0,70,33.46c1.11,2,4.25,3.39,4.69,3.57a6,6,0,0,0-4.8,0,2.35,2.35,0,1,0,2.29,4.1C74.37,40,74.75,37.06,74.75,37.06Z" transform="translate(-16.39 -0.61)"/><path d="M77.33,33c-2.19,1.2-2.57,4.09-2.57,4.09s2.66,1.22,4.85,0A2.35,2.35,0,1,0,77.33,33Z" transform="translate(-16.39 -0.61)"/><path d="M45.89,20.27l.84-.47,4.21,5.27-.66.36-.78-1L48.42,25l.46,1.19-.66.37Zm2.3,4.14.91-.5L46.92,21.1h0Z" transform="translate(-16.39 -0.61)"/><path d="M51.68,31.06a1.48,1.48,0,0,1,.53-.5,1.55,1.55,0,0,1,.71-.19,2.58,2.58,0,0,1-1.39-1A2.54,2.54,0,0,1,51.68,31.06Z" transform="translate(-16.39 -0.61)"/><path d="M51.51,29.3h0a3.67,3.67,0,0,0-.18-2,.79.79,0,0,0-1.08-.3.79.79,0,0,0-.32,1.07,3.84,3.84,0,0,0,1.56,1.2,1.94,1.94,0,0,0-1.6,0,.78.78,0,1,0,.76,1.37A2,2,0,0,0,51.51,29.3Z" transform="translate(-16.39 -0.61)"/><path d="M52.37,27.94a2,2,0,0,0-.85,1.36,2,2,0,0,0,1.61,0,.78.78,0,0,0,.32-1.07A.79.79,0,0,0,52.37,27.94Z" transform="translate(-16.39 -0.61)"/><path d="M101.23,50.64l-.84.46-4.21-5.27.65-.36.79,1,1.08-.6-.47-1.19.67-.37Zm-2.3-4.15L98,47l2.17,2.81h0Z" transform="translate(-16.39 -0.61)"/><path d="M95.44,39.85a1.49,1.49,0,0,1-1.25.68,2.66,2.66,0,0,1,1.4,1A2.51,2.51,0,0,1,95.44,39.85Z" transform="translate(-16.39 -0.61)"/><path d="M95.6,41.6h0a3.71,3.71,0,0,0,.19,2,.8.8,0,0,0,1.4-.77,3.66,3.66,0,0,0-1.57-1.19,2,2,0,0,0,1.6,0,.78.78,0,0,0,.32-1.07.79.79,0,0,0-1.08-.29A2,2,0,0,0,95.6,41.6Z" transform="translate(-16.39 -0.61)"/><path d="M94.74,43a2,2,0,0,0,.86-1.37,2,2,0,0,0-1.62,0,.78.78,0,0,0-.32,1.07A.8.8,0,0,0,94.74,43Z" transform="translate(-16.39 -0.61)"/><g class="cls-16"><path class="cls-17" d="M76.52.68c2.3.35,3.64,16.33,3,35.69S76.46,71.1,74.16,70.74s-3.64-16.34-3-35.68S74.22.31,76.52.68Z" transform="translate(-16.39 -0.61)"/><path class="cls-18" d="M65.65,63.43c.28-3.68,15.9-7.09,34.88-7.61s34.14,2,33.85,5.71-15.89,7.09-34.86,7.61S65.37,67.11,65.65,63.43Z" transform="translate(-16.39 -0.61)"/><path class="cls-19" d="M80.65,33.93c7.29,1,12.27,10.51,11.14,21.26s-8,18.64-15.24,17.65S64.28,62.33,65.41,51.59,73.37,32.94,80.65,33.93Z" transform="translate(-16.39 -0.61)"/></g><path class="cls-3" d="M74.66,64.09A1.66,1.66,0,0,1,73,62.35l2.32-55a1.73,1.73,0,0,1,1.78-1.64l36.27,1a1.72,1.72,0,0,1,1.7,1.73l-2.32,55.05a1.79,1.79,0,0,1-1.85,1.64Z" transform="translate(-16.39 -0.61)"/><path class="cls-20" d="M74.39,64.34a1.67,1.67,0,0,1-1.65-1.73l2.32-55a1.73,1.73,0,0,1,1.79-1.65l36.26,1a1.67,1.67,0,0,1,1.65,1.73l-2.32,55.05a1.73,1.73,0,0,1-1.79,1.64Z" transform="translate(-16.39 -0.61)"/><path class="cls-10" d="M94.39,28.15h-.06A13.14,13.14,0,0,1,88.1,35.2a12.55,12.55,0,0,1,5.62,7.37h.06a13.14,13.14,0,0,1,6.23-7A12.55,12.55,0,0,1,94.39,28.15Z" transform="translate(-16.39 -0.61)"/><path class="cls-10" d="M78.17,8.5l1,0L80,15.22l-.74,0-.14-1.28-1.23,0-.23,1.27-.75,0ZM78,13.26l1,0-.38-3.53h0Z" transform="translate(-16.39 -0.61)"/><path class="cls-10" d="M78.39,16.13h0a4,4,0,0,1-1.9,2.14,3.81,3.81,0,0,1,1.71,2.24h0a4,4,0,0,1,1.89-2.15A3.75,3.75,0,0,1,78.39,16.13Z" transform="translate(-16.39 -0.61)"/><path class="cls-10" d="M109.08,62.68l-1,0L107.28,56l.75,0,.14,1.27,1.23,0,.23-1.27.75,0Zm.2-4.75-1,0,.39,3.54h0Z" transform="translate(-16.39 -0.61)"/><path class="cls-10" d="M108.86,55.06h0a4,4,0,0,1,1.89-2.14,3.84,3.84,0,0,1-1.7-2.24h0a4,4,0,0,1-1.89,2.14A3.84,3.84,0,0,1,108.86,55.06Z" transform="translate(-16.39 -0.61)"/><g class="cls-21"><path class="cls-22" d="M344.41,230.76H329.15a12.75,12.75,0,0,1,0-25.5h15.26a10,10,0,0,0,10-10V71.64a10,10,0,0,0-10-10H85a10,10,0,0,0-10,10V195.23a10,10,0,0,0,10,10h16.4a12.75,12.75,0,1,1,0,25.5H85a35.57,35.57,0,0,1-35.53-35.53V71.64A35.57,35.57,0,0,1,85,36.11H344.41a35.56,35.56,0,0,1,35.52,35.53V195.23A35.56,35.56,0,0,1,344.41,230.76Z" transform="translate(-16.39 -0.61)"/><path class="cls-22" d="M125.91,254.37a37.32,37.32,0,1,1,37.31-37.32A37.36,37.36,0,0,1,125.91,254.37Zm0-49.13a11.82,11.82,0,1,0,11.81,11.81A11.83,11.83,0,0,0,125.91,205.24Z" transform="translate(-16.39 -0.61)"/><path class="cls-22" d="M125.91,244.16a12.73,12.73,0,0,1-10-4.8L104.49,225a12.75,12.75,0,0,1,0-15.9l11.45-14.36a12.75,12.75,0,0,1,19.94,0l11.45,14.36a12.75,12.75,0,0,1,0,15.9l-11.45,14.36A12.73,12.73,0,0,1,125.91,244.16Z" transform="translate(-16.39 -0.61)"/><path class="cls-22" d="M185.47,254.37a37.32,37.32,0,1,1,37.31-37.32A37.36,37.36,0,0,1,185.47,254.37Zm0-49.13a11.82,11.82,0,1,0,11.81,11.81A11.83,11.83,0,0,0,185.47,205.24Z" transform="translate(-16.39 -0.61)"/><path class="cls-22" d="M188.41,244.35h-5.89a12.77,12.77,0,0,1-10.63-5.7,19.33,19.33,0,0,1-13.74-18.45v0A19.35,19.35,0,0,1,166.8,204a19.33,19.33,0,0,1,37.33,0,19.32,19.32,0,0,1,8.65,16.1,19,19,0,0,1-.4,3.94A19.36,19.36,0,0,1,199,238.65,12.77,12.77,0,0,1,188.41,244.35Z" transform="translate(-16.39 -0.61)"/><path class="cls-22" d="M245,254.37a37.32,37.32,0,1,1,37.31-37.32A37.36,37.36,0,0,1,245,254.37Zm0-49.13a11.82,11.82,0,1,0,11.81,11.81A11.83,11.83,0,0,0,245,205.24Z" transform="translate(-16.39 -0.61)"/><path class="cls-22" d="M245,246a12.44,12.44,0,0,1-1.37-.07,12.71,12.71,0,0,1-8.27-4.33,76.69,76.69,0,0,0-6.2-6c-4.21-3.7-12.07-10.58-12.07-21.4,0-11.65,8.55-20.69,19.89-21.05a21.92,21.92,0,0,1,8,1.22,21.7,21.7,0,0,1,8-1.21c11.3.35,19.84,9.39,19.84,21,0,10.81-7.84,17.7-12.06,21.4a74,74,0,0,0-6.37,6.18A12.73,12.73,0,0,1,245,246Zm12.64-33.34v0Zm-25.29,0v0Z" transform="translate(-16.39 -0.61)"/><path class="cls-22" d="M304.58,254.37a37.32,37.32,0,1,1,37.32-37.32A37.36,37.36,0,0,1,304.58,254.37Zm0-49.13a11.82,11.82,0,1,0,11.82,11.81A11.83,11.83,0,0,0,304.58,205.24Z" transform="translate(-16.39 -0.61)"/><path class="cls-22" d="M307.89,245.2h-6.61a12.76,12.76,0,0,1-11-6.35,19.73,19.73,0,0,1-12.32-18.26c0-10,6.71-16.21,11.61-20.73a28.43,28.43,0,0,0,3.46-3.7c1.64-5.21,6-7.26,11.58-7.26s9.95,2,11.58,7.26a28.8,28.8,0,0,0,3.47,3.7h0c4.9,4.52,11.61,10.71,11.61,20.73a19.73,19.73,0,0,1-12.32,18.26A12.76,12.76,0,0,1,307.89,245.2Zm8-49.44Zm-22.59,0Z" transform="translate(-16.39 -0.61)"/></g><g class="cls-23"><path class="cls-22" d="M344.41,230H329.15a12,12,0,0,1,0-24h15.26a10.79,10.79,0,0,0,10.77-10.78V71.64a10.78,10.78,0,0,0-10.77-10.78H85A10.78,10.78,0,0,0,74.18,71.64V195.23A10.79,10.79,0,0,0,85,206h16.4a12,12,0,1,1,0,24H85a34.82,34.82,0,0,1-34.78-34.78V71.64A34.82,34.82,0,0,1,85,36.86H344.41a34.81,34.81,0,0,1,34.77,34.78V195.23A34.81,34.81,0,0,1,344.41,230Z" transform="translate(-16.39 -0.61)"/><path class="cls-22" d="M125.91,253.62a36.57,36.57,0,1,1,36.56-36.57A36.6,36.6,0,0,1,125.91,253.62Zm0-49.13a12.57,12.57,0,1,0,12.56,12.56A12.58,12.58,0,0,0,125.91,204.49Z" transform="translate(-16.39 -0.61)"/><path class="cls-22" d="M125.91,243.41a12,12,0,0,1-9.39-4.51l-11.45-14.37a12,12,0,0,1,0-15l11.45-14.36a12,12,0,0,1,18.77,0l11.45,14.36a12,12,0,0,1,0,15L135.29,238.9A12,12,0,0,1,125.91,243.41Z" transform="translate(-16.39 -0.61)"/><path class="cls-22" d="M185.47,253.62A36.57,36.57,0,1,1,222,217.05,36.6,36.6,0,0,1,185.47,253.62Zm0-49.13A12.57,12.57,0,1,0,198,217.05,12.58,12.58,0,0,0,185.47,204.49Z" transform="translate(-16.39 -0.61)"/><path class="cls-22" d="M188.41,243.6h-5.89A12,12,0,0,1,172.37,238,18.54,18.54,0,0,1,158.9,220.2v0a18.58,18.58,0,0,1,8.55-15.64,18.59,18.59,0,0,1,36,0A18.6,18.6,0,0,1,212,220.15a18.09,18.09,0,0,1-.39,3.78A18.56,18.56,0,0,1,198.56,238,12,12,0,0,1,188.41,243.6Z" transform="translate(-16.39 -0.61)"/><path class="cls-22" d="M245,253.62a36.57,36.57,0,1,1,36.56-36.57A36.6,36.6,0,0,1,245,253.62Zm0-49.13a12.57,12.57,0,1,0,12.56,12.56A12.58,12.58,0,0,0,245,204.49Z" transform="translate(-16.39 -0.61)"/><path class="cls-22" d="M245,245.25q-.65,0-1.29-.06a12,12,0,0,1-7.79-4.08,75.8,75.8,0,0,0-6.26-6.06c-4.42-3.88-11.82-10.36-11.82-20.84,0-11.23,8.24-20,19.17-20.3a21,21,0,0,1,8,1.26,21.2,21.2,0,0,1,8-1.25c10.89.33,19.12,9.06,19.12,20.29,0,10.47-7.39,17-11.81,20.84a73.79,73.79,0,0,0-6.43,6.24A12,12,0,0,1,245,245.25Zm11.9-32.68h0Zm-23.81,0h0Z" transform="translate(-16.39 -0.61)"/><path class="cls-22" d="M304.58,253.62a36.57,36.57,0,1,1,36.57-36.57A36.6,36.6,0,0,1,304.58,253.62Zm0-49.13a12.57,12.57,0,1,0,12.57,12.56A12.58,12.58,0,0,0,304.58,204.49Z" transform="translate(-16.39 -0.61)"/><path class="cls-22" d="M307.89,244.45h-6.61a12,12,0,0,1-10.51-6.2,19,19,0,0,1-12.09-17.66c0-9.69,6.57-15.75,11.36-20.18a28.8,28.8,0,0,0,3.64-3.9c1.56-4.89,5.67-6.86,10.9-6.86s9.35,2,10.91,6.86a27.76,27.76,0,0,0,3.63,3.9h0c4.8,4.43,11.37,10.49,11.37,20.18a19,19,0,0,1-12.1,17.66A12,12,0,0,1,307.89,244.45Zm7.35-48.3Zm-21.31,0Z" transform="translate(-16.39 -0.61)"/></g><g class="cls-24"><path class="cls-22" d="M344.41,229.26H329.15a11.25,11.25,0,0,1,0-22.5h15.26a11.54,11.54,0,0,0,11.52-11.53V71.64a11.54,11.54,0,0,0-11.52-11.53H85A11.54,11.54,0,0,0,73.43,71.64V195.23A11.54,11.54,0,0,0,85,206.76h16.4a11.25,11.25,0,1,1,0,22.5H85a34.07,34.07,0,0,1-34-34V71.64a34.06,34.06,0,0,1,34-34H344.41a34.06,34.06,0,0,1,34,34V195.23A34.07,34.07,0,0,1,344.41,229.26Z" transform="translate(-16.39 -0.61)"/><path class="cls-22" d="M125.91,252.87a35.82,35.82,0,1,1,35.81-35.82A35.86,35.86,0,0,1,125.91,252.87Zm0-49.13a13.32,13.32,0,1,0,13.31,13.31A13.33,13.33,0,0,0,125.91,203.74Z" transform="translate(-16.39 -0.61)"/><path class="cls-22" d="M125.91,242.66a11.26,11.26,0,0,1-8.8-4.23l-11.45-14.36a11.26,11.26,0,0,1,0-14l11.45-14.36a11.24,11.24,0,0,1,17.59,0L146.15,210a11.23,11.23,0,0,1,0,14L134.7,238.43A11.25,11.25,0,0,1,125.91,242.66Z" transform="translate(-16.39 -0.61)"/><path class="cls-22" d="M185.47,252.87a35.82,35.82,0,1,1,35.81-35.82A35.86,35.86,0,0,1,185.47,252.87Zm0-49.13a13.32,13.32,0,1,0,13.31,13.31A13.33,13.33,0,0,0,185.47,203.74Z" transform="translate(-16.39 -0.61)"/><path class="cls-22" d="M188.41,242.85h-5.89a11.25,11.25,0,0,1-9.66-5.48A17.89,17.89,0,0,1,160,223.71a17.06,17.06,0,0,1-.36-3.51v0A17.85,17.85,0,0,1,168.11,205a17.83,17.83,0,0,1,34.71,0,17.8,17.8,0,0,1,8.46,15.16,17.33,17.33,0,0,1-.37,3.63,17.87,17.87,0,0,1-12.84,13.59A11.24,11.24,0,0,1,188.41,242.85Z" transform="translate(-16.39 -0.61)"/><path class="cls-22" d="M245,252.87a35.82,35.82,0,1,1,35.81-35.82A35.86,35.86,0,0,1,245,252.87Zm0-49.13a13.32,13.32,0,1,0,13.31,13.31A13.33,13.33,0,0,0,245,203.74Z" transform="translate(-16.39 -0.61)"/><path class="cls-22" d="M245,244.5a12.1,12.1,0,0,1-1.21-.06,11.23,11.23,0,0,1-7.31-3.83,75.76,75.76,0,0,0-6.33-6.13c-4.32-3.79-11.56-10.13-11.56-20.27,0-10.82,7.93-19.22,18.44-19.55a20.31,20.31,0,0,1,8,1.32,20.49,20.49,0,0,1,8-1.32c10.47.33,18.39,8.73,18.39,19.55,0,10.13-7.23,16.48-11.55,20.27a71.45,71.45,0,0,0-6.49,6.31A11.25,11.25,0,0,1,245,244.5Zm11.16-32h0Zm-22.33,0h0Z" transform="translate(-16.39 -0.61)"/><path class="cls-22" d="M304.58,252.87a35.82,35.82,0,1,1,35.82-35.82A35.85,35.85,0,0,1,304.58,252.87Zm0-49.13a13.32,13.32,0,1,0,13.32,13.31A13.32,13.32,0,0,0,304.58,203.74Z" transform="translate(-16.39 -0.61)"/><path class="cls-22" d="M307.89,243.7h-6.61a11.25,11.25,0,0,1-10-6,18.22,18.22,0,0,1-11.87-17.06c0-9.36,6.17-15.05,11.12-19.63a28.13,28.13,0,0,0,3.81-4.11c1.48-4.56,5.34-6.45,10.22-6.45s8.75,1.89,10.23,6.45a27.52,27.52,0,0,0,3.81,4.11h0c4.95,4.58,11.12,10.27,11.12,19.63a18.22,18.22,0,0,1-11.87,17.06A11.27,11.27,0,0,1,307.89,243.7Zm6.71-47.17Zm-20,0Z" transform="translate(-16.39 -0.61)"/></g><g class="cls-25"><path class="cls-22" d="M344.41,228.51H329.15a10.5,10.5,0,0,1,0-21h15.26a12.29,12.29,0,0,0,12.27-12.28V71.64a12.29,12.29,0,0,0-12.27-12.28H85A12.3,12.3,0,0,0,72.68,71.64V195.23A12.3,12.3,0,0,0,85,207.51h16.4a10.5,10.5,0,1,1,0,21H85a33.32,33.32,0,0,1-33.28-33.28V71.64A33.32,33.32,0,0,1,85,38.36H344.41a33.31,33.31,0,0,1,33.27,33.28V195.23A33.31,33.31,0,0,1,344.41,228.51Z" transform="translate(-16.39 -0.61)"/><path class="cls-22" d="M125.91,252.12A35.07,35.07,0,1,1,161,217.05,35.11,35.11,0,0,1,125.91,252.12Zm0-49.13A14.07,14.07,0,1,0,140,217.05,14.08,14.08,0,0,0,125.91,203Z" transform="translate(-16.39 -0.61)"/><path class="cls-22" d="M125.91,241.91A10.48,10.48,0,0,1,117.7,238L106.25,223.6a10.48,10.48,0,0,1,0-13.09l11.45-14.37a10.51,10.51,0,0,1,16.42,0l11.45,14.37a10.51,10.51,0,0,1,0,13.09L134.12,238A10.51,10.51,0,0,1,125.91,241.91Z" transform="translate(-16.39 -0.61)"/><path class="cls-22" d="M185.47,252.12a35.07,35.07,0,1,1,35.06-35.07A35.11,35.11,0,0,1,185.47,252.12Zm0-49.13a14.07,14.07,0,1,0,14.06,14.06A14.08,14.08,0,0,0,185.47,203Z" transform="translate(-16.39 -0.61)"/><path class="cls-22" d="M188.41,242.1h-5.89a10.5,10.5,0,0,1-9.17-5.38A17,17,0,0,1,160.4,220.2v0a17.08,17.08,0,0,1,8.37-14.69,17.08,17.08,0,0,1,33.39,0,17.08,17.08,0,0,1,8.37,14.69,16.63,16.63,0,0,1-.36,3.48,17.09,17.09,0,0,1-12.59,13.09A10.5,10.5,0,0,1,188.41,242.1Z" transform="translate(-16.39 -0.61)"/><path class="cls-22" d="M245,252.12a35.07,35.07,0,1,1,35.06-35.07A35.11,35.11,0,0,1,245,252.12ZM245,203a14.07,14.07,0,1,0,14.06,14.06A14.08,14.08,0,0,0,245,203Z" transform="translate(-16.39 -0.61)"/><path class="cls-22" d="M245,243.75a10.69,10.69,0,0,1-1.13-.06,10.46,10.46,0,0,1-6.83-3.58,79,79,0,0,0-6.39-6.19c-4.23-3.71-11.31-9.91-11.31-19.71,0-10.4,7.62-18.48,17.71-18.8a19.7,19.7,0,0,1,7.95,1.37,19.74,19.74,0,0,1,8-1.37c10.06.32,17.67,8.4,17.67,18.8,0,9.79-7.07,16-11.3,19.71a74.37,74.37,0,0,0-6.55,6.37A10.48,10.48,0,0,1,245,243.75Zm10.41-31.37h0Zm-20.83,0h0Z" transform="translate(-16.39 -0.61)"/><path class="cls-22" d="M304.58,252.12a35.07,35.07,0,1,1,35.07-35.07A35.1,35.1,0,0,1,304.58,252.12Zm0-49.13a14.07,14.07,0,1,0,14.07,14.06A14.08,14.08,0,0,0,304.58,203Z" transform="translate(-16.39 -0.61)"/><path class="cls-22" d="M307.89,243h-6.61a10.5,10.5,0,0,1-9.44-5.9,17.49,17.49,0,0,1-11.66-16.46c0-9,6-14.6,10.88-19.08a28.05,28.05,0,0,0,4-4.32c1.4-4.23,5-6,9.54-6s8.15,1.81,9.55,6a27.49,27.49,0,0,0,4,4.32h0C323,206,329,211.56,329,220.59a17.49,17.49,0,0,1-11.66,16.46A10.5,10.5,0,0,1,307.89,243Zm6.06-46Zm-18.73,0Z" transform="translate(-16.39 -0.61)"/></g><g class="cls-26"><path class="cls-22" d="M344.41,227.76H329.15a9.75,9.75,0,0,1,0-19.5h15.26a13,13,0,0,0,13-13V71.64a13,13,0,0,0-13-13H85a13,13,0,0,0-13,13V195.23a13,13,0,0,0,13,13h16.4a9.75,9.75,0,1,1,0,19.5H85a32.57,32.57,0,0,1-32.53-32.53V71.64A32.56,32.56,0,0,1,85,39.11H344.41a32.56,32.56,0,0,1,32.52,32.53V195.23A32.57,32.57,0,0,1,344.41,227.76Z" transform="translate(-16.39 -0.61)"/><path class="cls-22" d="M125.91,251.37a34.32,34.32,0,1,1,34.31-34.32A34.36,34.36,0,0,1,125.91,251.37Zm0-49.13a14.82,14.82,0,1,0,14.81,14.81A14.83,14.83,0,0,0,125.91,202.24Z" transform="translate(-16.39 -0.61)"/><path class="cls-22" d="M125.91,241.16a9.76,9.76,0,0,1-7.63-3.67l-11.45-14.36a9.77,9.77,0,0,1,0-12.16l11.45-14.36a9.76,9.76,0,0,1,15.25,0L145,211a9.74,9.74,0,0,1,0,12.16l-11.45,14.36A9.75,9.75,0,0,1,125.91,241.16Z" transform="translate(-16.39 -0.61)"/><path class="cls-22" d="M185.47,251.37a34.32,34.32,0,1,1,34.31-34.32A34.36,34.36,0,0,1,185.47,251.37Zm0-49.13a14.82,14.82,0,1,0,14.81,14.81A14.83,14.83,0,0,0,185.47,202.24Z" transform="translate(-16.39 -0.61)"/><path class="cls-22" d="M188.41,241.35h-5.89a9.75,9.75,0,0,1-8.67-5.28,16.39,16.39,0,0,1-12.37-12.66,15.54,15.54,0,0,1-.33-3.21v0a16.34,16.34,0,0,1,8.29-14.21,16.33,16.33,0,0,1,32.05,0,16.34,16.34,0,0,1,8.29,14.21,15.71,15.71,0,0,1-.34,3.32,16.36,16.36,0,0,1-12.36,12.6A9.74,9.74,0,0,1,188.41,241.35Z" transform="translate(-16.39 -0.61)"/><path class="cls-22" d="M245,251.37a34.32,34.32,0,1,1,34.31-34.32A34.36,34.36,0,0,1,245,251.37Zm0-49.13a14.82,14.82,0,1,0,14.81,14.81A14.83,14.83,0,0,0,245,202.24Z" transform="translate(-16.39 -0.61)"/><path class="cls-22" d="M245,243a9.16,9.16,0,0,1-1-.05,9.76,9.76,0,0,1-6.35-3.34,77.19,77.19,0,0,0-6.46-6.26c-4.13-3.62-11-9.68-11-19.14,0-10,7.3-17.75,17-18.05a18.84,18.84,0,0,1,7.92,1.43,18.77,18.77,0,0,1,7.95-1.43c9.65.3,16.94,8.06,16.94,18.05,0,9.46-6.91,15.52-11,19.14a80.06,80.06,0,0,0-6.62,6.43A9.75,9.75,0,0,1,245,243Zm-9.67-30.71h0Zm19.35,0h0Z" transform="translate(-16.39 -0.61)"/><path class="cls-22" d="M304.58,251.37a34.32,34.32,0,1,1,34.32-34.32A34.36,34.36,0,0,1,304.58,251.37Zm0-49.13a14.82,14.82,0,1,0,14.82,14.81A14.82,14.82,0,0,0,304.58,202.24Z" transform="translate(-16.39 -0.61)"/><path class="cls-22" d="M307.89,242.2h-6.61a9.75,9.75,0,0,1-8.9-5.76,16.73,16.73,0,0,1-11.45-15.85c0-8.7,5.9-14.15,10.64-18.52a27.86,27.86,0,0,0,4.14-4.54c1.32-3.92,4.68-5.63,8.87-5.63s7.55,1.71,8.87,5.63a28.71,28.71,0,0,0,4.15,4.54h0c4.74,4.37,10.64,9.82,10.64,18.52a16.73,16.73,0,0,1-11.45,15.85A9.75,9.75,0,0,1,307.89,242.2Zm5.41-44.92Zm-17.43,0Z" transform="translate(-16.39 -0.61)"/></g><g class="cls-27"><path class="cls-22" d="M344.41,227H329.15a9,9,0,0,1,0-18h15.26a13.79,13.79,0,0,0,13.77-13.78V71.64a13.79,13.79,0,0,0-13.77-13.78H85A13.79,13.79,0,0,0,71.18,71.64V195.23A13.79,13.79,0,0,0,85,209h16.4a9,9,0,1,1,0,18H85a31.81,31.81,0,0,1-31.78-31.78V71.64A31.81,31.81,0,0,1,85,39.86H344.41a31.81,31.81,0,0,1,31.77,31.78V195.23A31.81,31.81,0,0,1,344.41,227Z" transform="translate(-16.39 -0.61)"/><path class="cls-22" d="M125.91,250.62a33.57,33.57,0,1,1,33.56-33.57A33.61,33.61,0,0,1,125.91,250.62Zm0-49.13a15.57,15.57,0,1,0,15.56,15.56A15.58,15.58,0,0,0,125.91,201.49Z" transform="translate(-16.39 -0.61)"/><path class="cls-22" d="M125.91,240.41a9,9,0,0,1-7-3.39l-11.45-14.36a9,9,0,0,1,0-11.22l11.45-14.36a9,9,0,0,1,14.07,0l11.46,14.36a9,9,0,0,1,0,11.22L132.94,237A9,9,0,0,1,125.91,240.41Z" transform="translate(-16.39 -0.61)"/><path class="cls-22" d="M185.47,250.62A33.57,33.57,0,1,1,219,217.05,33.61,33.61,0,0,1,185.47,250.62Zm0-49.13A15.57,15.57,0,1,0,201,217.05,15.58,15.58,0,0,0,185.47,201.49Z" transform="translate(-16.39 -0.61)"/><path class="cls-22" d="M188.41,240.6h-5.89a9,9,0,0,1-8.15-5.18A15.56,15.56,0,0,1,161.9,220.2v0a15.61,15.61,0,0,1,8.21-13.73,15.58,15.58,0,0,1,30.71,0,15.58,15.58,0,0,1-4.25,29A9,9,0,0,1,188.41,240.6Z" transform="translate(-16.39 -0.61)"/><path class="cls-22" d="M245,250.62a33.57,33.57,0,1,1,33.56-33.57A33.61,33.61,0,0,1,245,250.62Zm0-49.13a15.57,15.57,0,1,0,15.56,15.56A15.58,15.58,0,0,0,245,201.49Z" transform="translate(-16.39 -0.61)"/><path class="cls-22" d="M245,242.25a7.72,7.72,0,0,1-1-.05,9,9,0,0,1-5.86-3.08,78.9,78.9,0,0,0-6.53-6.33c-4-3.54-10.8-9.46-10.8-18.58,0-9.57,7-17,16.26-17.3a18,18,0,0,1,7.9,1.5,18.13,18.13,0,0,1,7.92-1.5c9.24.29,16.22,7.73,16.22,17.3,0,9.12-6.75,15-10.79,18.58a77.17,77.17,0,0,0-6.67,6.49A9,9,0,0,1,245,242.25Zm-.59-22.2.6.54.59-.54A11.81,11.81,0,0,1,244.43,220.05Z" transform="translate(-16.39 -0.61)"/><path class="cls-22" d="M304.58,250.62a33.57,33.57,0,1,1,33.57-33.57A33.61,33.61,0,0,1,304.58,250.62Zm0-49.13a15.57,15.57,0,1,0,15.57,15.56A15.58,15.58,0,0,0,304.58,201.49Z" transform="translate(-16.39 -0.61)"/><path class="cls-22" d="M307.89,241.45h-6.61a9,9,0,0,1-8.34-5.62,16,16,0,0,1-11.26-15.24c0-8.38,5.77-13.7,10.4-18a27.16,27.16,0,0,0,4.31-4.76c1.24-3.59,4.34-5.21,8.19-5.21s7,1.62,8.2,5.21a27.16,27.16,0,0,0,4.31,4.76h0c4.63,4.27,10.4,9.59,10.4,18a16,16,0,0,1-11.26,15.24A9,9,0,0,1,307.89,241.45Zm4.76-43.8Zm-16.13,0Z" transform="translate(-16.39 -0.61)"/></g><g class="cls-28"><path class="cls-22" d="M344.41,226.26H329.15a8.25,8.25,0,0,1,0-16.5h15.26a14.54,14.54,0,0,0,14.52-14.53V71.64a14.54,14.54,0,0,0-14.52-14.53H85A14.54,14.54,0,0,0,70.43,71.64V195.23A14.54,14.54,0,0,0,85,209.76h16.4a8.25,8.25,0,1,1,0,16.5H85a31.07,31.07,0,0,1-31-31V71.64a31.07,31.07,0,0,1,31-31H344.41a31.06,31.06,0,0,1,31,31V195.23A31.06,31.06,0,0,1,344.41,226.26Z" transform="translate(-16.39 -0.61)"/><path class="cls-22" d="M125.91,249.87a32.82,32.82,0,1,1,32.81-32.82A32.85,32.85,0,0,1,125.91,249.87Zm0-49.13a16.32,16.32,0,1,0,16.31,16.31A16.33,16.33,0,0,0,125.91,200.74Z" transform="translate(-16.39 -0.61)"/><path class="cls-22" d="M125.91,239.66a8.25,8.25,0,0,1-6.45-3.1L108,222.2a8.25,8.25,0,0,1,0-10.29l11.45-14.36a8.24,8.24,0,0,1,12.9,0l11.45,14.36a8.25,8.25,0,0,1,0,10.29l-11.45,14.36A8.26,8.26,0,0,1,125.91,239.66Zm-.9-22.61.9,1.13.9-1.13-.9-1.13Z" transform="translate(-16.39 -0.61)"/><path class="cls-22" d="M185.47,249.87a32.82,32.82,0,1,1,32.81-32.82A32.85,32.85,0,0,1,185.47,249.87Zm0-49.13a16.32,16.32,0,1,0,16.31,16.31A16.33,16.33,0,0,0,185.47,200.74Z" transform="translate(-16.39 -0.61)"/><path class="cls-22" d="M188.41,239.85h-5.89a8.25,8.25,0,0,1-7.57-5,.78.78,0,0,1,0-.14,14.87,14.87,0,0,1-12-11.64,14.09,14.09,0,0,1-.3-2.91v0a14.87,14.87,0,0,1,8.14-13.24,14.84,14.84,0,0,1,29.35,0,14.85,14.85,0,0,1,8.14,13.24,14.16,14.16,0,0,1-.31,3A14.85,14.85,0,0,1,196,234.75l-.06.14A8.25,8.25,0,0,1,188.41,239.85Z" transform="translate(-16.39 -0.61)"/><path class="cls-22" d="M245,249.87a32.82,32.82,0,1,1,32.81-32.82A32.85,32.85,0,0,1,245,249.87Zm0-49.13a16.32,16.32,0,1,0,16.31,16.31A16.33,16.33,0,0,0,245,200.74Z" transform="translate(-16.39 -0.61)"/><path class="cls-22" d="M245,241.5a8.77,8.77,0,0,1-.88,0,8.26,8.26,0,0,1-5.38-2.84,79.45,79.45,0,0,0-6.6-6.39c-4.19-3.68-10.54-9.24-10.54-18,0-9.16,6.68-16.27,15.53-16.55a17.07,17.07,0,0,1,7.88,1.58,17.1,17.1,0,0,1,7.9-1.58c8.82.28,15.49,7.39,15.49,16.55,0,8.78-6.34,14.34-10.53,18a77.8,77.8,0,0,0-6.74,6.55A8.25,8.25,0,0,1,245,241.5Zm-3.34-22.89,1.36,1.21c.71.62,1.37,1.22,2,1.78.61-.56,1.27-1.16,2-1.78l1.36-1.21A8.54,8.54,0,0,1,241.68,218.61Z" transform="translate(-16.39 -0.61)"/><path class="cls-22" d="M304.58,249.87a32.82,32.82,0,1,1,32.82-32.82A32.85,32.85,0,0,1,304.58,249.87Zm0-49.13a16.32,16.32,0,1,0,16.32,16.31A16.33,16.33,0,0,0,304.58,200.74Z" transform="translate(-16.39 -0.61)"/><path class="cls-22" d="M307.89,240.7h-6.61a8.23,8.23,0,0,1-7.77-5.48,15.22,15.22,0,0,1-11.08-14.63c0-8.05,5.4-13,10.16-17.42a27.39,27.39,0,0,0,4.48-5c1.15-3.27,4-4.79,7.51-4.79s6.37,1.52,7.52,4.79a27,27,0,0,0,4.48,5h0c4.76,4.39,10.16,9.37,10.16,17.42a15.23,15.23,0,0,1-11.08,14.63A8.23,8.23,0,0,1,307.89,240.7Zm-2.77-24.57a7.8,7.8,0,0,1,1.28.1l-1-.94-.81-.75c-.26.24-.52.5-.8.75l-1,.94a7.91,7.91,0,0,1,1.82-.08ZM312,198Zm-14.81,0Z" transform="translate(-16.39 -0.61)"/></g><g class="cls-29"><path class="cls-22" d="M344.41,225.51H329.15a7.5,7.5,0,0,1,0-15h15.26a15.3,15.3,0,0,0,15.27-15.28V71.64a15.29,15.29,0,0,0-15.27-15.28H85A15.29,15.29,0,0,0,69.68,71.64V195.23A15.3,15.3,0,0,0,85,210.51h16.4a7.5,7.5,0,1,1,0,15H85a30.32,30.32,0,0,1-30.28-30.28V71.64A30.31,30.31,0,0,1,85,41.36H344.41a30.31,30.31,0,0,1,30.27,30.28V195.23A30.31,30.31,0,0,1,344.41,225.51Z" transform="translate(-16.39 -0.61)"/><path class="cls-22" d="M125.91,249.12A32.07,32.07,0,1,1,158,217.05,32.11,32.11,0,0,1,125.91,249.12Zm0-49.13A17.07,17.07,0,1,0,143,217.05,17.08,17.08,0,0,0,125.91,200Z" transform="translate(-16.39 -0.61)"/><path class="cls-22" d="M125.91,238.91a7.52,7.52,0,0,1-5.87-2.82l-11.45-14.36a7.5,7.5,0,0,1,0-9.35L120,198a7.51,7.51,0,0,1,11.73,0l11.45,14.37a7.5,7.5,0,0,1,0,9.35l-11.45,14.36A7.5,7.5,0,0,1,125.91,238.91Zm-1.86-21.86,1.86,2.33,1.86-2.33-1.86-2.33Z" transform="translate(-16.39 -0.61)"/><path class="cls-22" d="M185.47,249.12a32.07,32.07,0,1,1,32.06-32.07A32.1,32.1,0,0,1,185.47,249.12Zm0-49.13a17.07,17.07,0,1,0,17.06,17.06A17.08,17.08,0,0,0,185.47,200Z" transform="translate(-16.39 -0.61)"/><path class="cls-22" d="M188.41,239.1h-5.89a7.5,7.5,0,0,1-6.88-4.51c-.07-.17-.14-.34-.2-.51a14.06,14.06,0,0,1-12-13.88v0a14.11,14.11,0,0,1,8.08-12.74,14.08,14.08,0,0,1,28,0,14.08,14.08,0,0,1-4,26.67,5.38,5.38,0,0,1-.2.51A7.5,7.5,0,0,1,188.41,239.1Zm-2-30h0a0,0,0,0,0,0,0A0,0,0,0,1,186.38,209.12Z" transform="translate(-16.39 -0.61)"/><path class="cls-22" d="M245,249.12a32.07,32.07,0,1,1,32.06-32.07A32.1,32.1,0,0,1,245,249.12ZM245,200a17.07,17.07,0,1,0,17.06,17.06A17.08,17.08,0,0,0,245,200Z" transform="translate(-16.39 -0.61)"/><path class="cls-22" d="M245,240.75a7.26,7.26,0,0,1-.8,0,7.51,7.51,0,0,1-4.9-2.58,79.73,79.73,0,0,0-6.66-6.47c-4.1-3.59-10.29-9-10.29-17.45,0-8.74,6.37-15.54,14.8-15.8a16.33,16.33,0,0,1,7.86,1.66,16.54,16.54,0,0,1,7.87-1.66c8.41.26,14.77,7.06,14.77,15.8,0,8.44-6.18,13.86-10.27,17.45a79.47,79.47,0,0,0-6.81,6.62A7.52,7.52,0,0,1,245,240.75Zm-7.29-27.35h-.07l-.18,0a2.55,2.55,0,0,0-.11.78c0,1.64,3.37,4.59,5.18,6.18.9.79,1.73,1.54,2.48,2.23.74-.69,1.57-1.44,2.47-2.23,1.81-1.59,5.17-4.54,5.17-6.18a1.74,1.74,0,0,0-.13-.8h-.39a7.5,7.5,0,0,1-14.25,0Z" transform="translate(-16.39 -0.61)"/><path class="cls-22" d="M304.58,249.12a32.07,32.07,0,1,1,32.07-32.07A32.1,32.1,0,0,1,304.58,249.12Zm0-49.13a17.07,17.07,0,1,0,17.07,17.06A17.08,17.08,0,0,0,304.58,200Z" transform="translate(-16.39 -0.61)"/><path class="cls-22" d="M307.89,240h-6.61a7.49,7.49,0,0,1-7.16-5.25l0-.1a14.48,14.48,0,0,1-10.91-14c0-7.72,5.27-12.58,9.92-16.87a27.46,27.46,0,0,0,4.65-5.2c1.06-3,3.66-4.37,6.83-4.37s5.78,1.41,6.84,4.37a27.46,27.46,0,0,0,4.65,5.2h0c4.65,4.29,9.92,9.15,9.92,16.87a14.48,14.48,0,0,1-10.92,14l0,.1A7.49,7.49,0,0,1,307.89,240Zm-2.76-23.07a7.49,7.49,0,0,1,4.47,1.48c-1.05-1.17-2.5-2.51-3.7-3.62-.46-.43-.9-.84-1.32-1.25-.41.41-.85.82-1.31,1.25-1.2,1.11-2.65,2.45-3.7,3.62a7.52,7.52,0,0,1,5-1.46Zm6.2-18.51Zm-13.49,0Z" transform="translate(-16.39 -0.61)"/></g><g class="cls-30"><path class="cls-22" d="M344.41,224.76H329.15a6.75,6.75,0,0,1,0-13.5h15.26a16,16,0,0,0,16-16V71.64a16,16,0,0,0-16-16H85a16,16,0,0,0-16,16V195.23a16,16,0,0,0,16,16h16.4a6.75,6.75,0,1,1,0,13.5H85a29.56,29.56,0,0,1-29.53-29.53V71.64A29.55,29.55,0,0,1,85,42.11H344.41a29.55,29.55,0,0,1,29.52,29.53V195.23A29.56,29.56,0,0,1,344.41,224.76Z" transform="translate(-16.39 -0.61)"/><path class="cls-22" d="M125.91,248.37a31.32,31.32,0,1,1,31.31-31.32A31.36,31.36,0,0,1,125.91,248.37Zm0-49.13a17.82,17.82,0,1,0,17.81,17.81A17.83,17.83,0,0,0,125.91,199.24Z" transform="translate(-16.39 -0.61)"/><path class="cls-22" d="M125.91,238.16a6.73,6.73,0,0,1-5.28-2.54l-11.45-14.36a6.74,6.74,0,0,1,0-8.42l11.45-14.36a6.75,6.75,0,0,1,10.55,0l11.46,14.36a6.76,6.76,0,0,1,0,8.42l-11.46,14.36A6.73,6.73,0,0,1,125.91,238.16Zm-2.82-21.11,2.82,3.54,2.82-3.54-2.82-3.53Z" transform="translate(-16.39 -0.61)"/><path class="cls-22" d="M185.47,248.37a31.32,31.32,0,1,1,31.31-31.32A31.36,31.36,0,0,1,185.47,248.37Zm0-49.13a17.82,17.82,0,1,0,17.81,17.81A17.83,17.83,0,0,0,185.47,199.24Z" transform="translate(-16.39 -0.61)"/><path class="cls-22" d="M188.41,238.35h-5.89a6.74,6.74,0,0,1-6.19-4.06,7.28,7.28,0,0,1-.32-.89,13.37,13.37,0,0,1-11.59-10.59,12.56,12.56,0,0,1-.27-2.61v0a13.34,13.34,0,0,1,8-12.23,13.33,13.33,0,0,1,26.56,0,13.34,13.34,0,0,1,8,12.23,12.71,12.71,0,0,1-.28,2.71,13.34,13.34,0,0,1-11.58,10.54,5.92,5.92,0,0,1-.32.89A6.74,6.74,0,0,1,188.41,238.35Z" transform="translate(-16.39 -0.61)"/><path class="cls-22" d="M245,248.37a31.32,31.32,0,1,1,31.31-31.32A31.36,31.36,0,0,1,245,248.37Zm0-49.13a17.82,17.82,0,1,0,17.81,17.81A17.83,17.83,0,0,0,245,199.24Z" transform="translate(-16.39 -0.61)"/><path class="cls-22" d="M245,240q-.36,0-.72,0a6.75,6.75,0,0,1-4.41-2.34,81.11,81.11,0,0,0-6.74-6.53c-4-3.5-10-8.79-10-16.89,0-8.33,6-14.8,14.08-15.05a15.71,15.71,0,0,1,7.83,1.75,15.64,15.64,0,0,1,7.84-1.75c8,.25,14.05,6.72,14.05,15.05,0,8.1-6,13.39-10,16.89a80.64,80.64,0,0,0-6.86,6.67A6.76,6.76,0,0,1,245,240Zm-7.28-27.35h-.1c-.37,0-1,0-1,1.56,0,1.83,2.69,4.33,5.43,6.74,1.11,1,2.1,1.87,3,2.7.87-.82,1.86-1.73,3-2.7,2.74-2.41,5.42-4.91,5.42-6.74,0-1.52-.66-1.55-1-1.56a2.91,2.91,0,0,0-.88.11,6.75,6.75,0,0,1-13.07,0A2.53,2.53,0,0,0,237.74,212.65Z" transform="translate(-16.39 -0.61)"/><path class="cls-22" d="M304.58,248.37a31.32,31.32,0,1,1,31.32-31.32A31.35,31.35,0,0,1,304.58,248.37Zm0-49.13a17.82,17.82,0,1,0,17.82,17.81A17.83,17.83,0,0,0,304.58,199.24Z" transform="translate(-16.39 -0.61)"/><path class="cls-22" d="M307.89,239.2h-6.61a6.74,6.74,0,0,1-6.44-4.73c0-.16-.1-.33-.14-.5a13.71,13.71,0,0,1-10.77-13.38c0-7.39,5.14-12.13,9.68-16.32a27.45,27.45,0,0,0,4.82-5.42c1-2.65,3.31-3.95,6.15-3.95s5.2,1.3,6.16,3.95a27.45,27.45,0,0,0,4.82,5.42h0c4.54,4.19,9.68,8.93,9.68,16.32A13.71,13.71,0,0,1,314.46,234a4.07,4.07,0,0,1-.13.5A6.74,6.74,0,0,1,307.89,239.2Zm2.87-18.54a2,2,0,0,0,.78.13.2.2,0,0,0,.2-.2c0-1.48-2.71-4-5.33-6.4h0c-.66-.61-1.27-1.19-1.83-1.75-.55.56-1.16,1.14-1.82,1.75-2.62,2.42-5.33,4.92-5.33,6.4a.2.2,0,0,0,.2.2,2.31,2.31,0,0,0,.78-.13,7.84,7.84,0,0,1,12.35,0Zm-.09-21.93Zm-12.17,0Z" transform="translate(-16.39 -0.61)"/></g><g class="cls-31"><path class="cls-22" d="M344.41,224H329.15a6,6,0,0,1,0-12h15.26a16.79,16.79,0,0,0,16.77-16.78V71.64a16.79,16.79,0,0,0-16.77-16.78H85A16.8,16.8,0,0,0,68.18,71.64V195.23A16.8,16.8,0,0,0,85,212h16.4a6,6,0,1,1,0,12H85a28.81,28.81,0,0,1-28.78-28.78V71.64A28.81,28.81,0,0,1,85,42.86H344.41a28.81,28.81,0,0,1,28.77,28.78V195.23A28.81,28.81,0,0,1,344.41,224Z" transform="translate(-16.39 -0.61)"/><path class="cls-22" d="M125.91,247.62a30.57,30.57,0,1,1,30.56-30.57A30.6,30.6,0,0,1,125.91,247.62Zm0-49.13a18.57,18.57,0,1,0,18.56,18.56A18.58,18.58,0,0,0,125.91,198.49Z" transform="translate(-16.39 -0.61)"/><path class="cls-22" d="M125.91,237.41a6,6,0,0,1-4.69-2.26l-11.46-14.36a6,6,0,0,1,0-7.48L121.22,199a6,6,0,0,1,9.38,0l11.45,14.36a6,6,0,0,1,0,7.48L130.6,235.15A6,6,0,0,1,125.91,237.41Zm-3.78-20.36,3.78,4.74,3.77-4.74-3.77-4.74Z" transform="translate(-16.39 -0.61)"/><path class="cls-22" d="M185.47,247.62A30.57,30.57,0,1,1,216,217.05,30.6,30.6,0,0,1,185.47,247.62Zm0-49.13A18.57,18.57,0,1,0,204,217.05,18.58,18.58,0,0,0,185.47,198.49Z" transform="translate(-16.39 -0.61)"/><path class="cls-22" d="M188.41,237.6h-5.89A6,6,0,0,1,177,234a5.5,5.5,0,0,1-.4-1.29,12.56,12.56,0,0,1-11.72-12.5v0a12.61,12.61,0,0,1,8-11.72,12.58,12.58,0,0,1,25.13,0,12.61,12.61,0,0,1,8,11.72,12.46,12.46,0,0,1-.26,2.55,12.6,12.6,0,0,1-11.46,10,6,6,0,0,1-5.9,4.9Zm4.48-17.74a1.94,1.94,0,0,1,0,.24.59.59,0,0,0,.58.63.59.59,0,0,0,.57-.46v-.12a.58.58,0,0,0-.58-.58h-.2s0,0-.05.06Zm-16,.35a.61.61,0,0,0,.58.52.58.58,0,0,0,.58-.58c0-.08,0-.15,0-.23l-.35-.24a1.18,1.18,0,0,0-.15-.11h-.07a.59.59,0,0,0-.58.54v.1Zm8.57-11.71a.58.58,0,0,0-.58.58,1.47,1.47,0,0,0,.56,1.23,1.37,1.37,0,0,0,.6-1.23A.58.58,0,0,0,185.47,208.5Z" transform="translate(-16.39 -0.61)"/><path class="cls-22" d="M245,247.62a30.57,30.57,0,1,1,30.56-30.57A30.6,30.6,0,0,1,245,247.62Zm0-49.13a18.57,18.57,0,1,0,18.56,18.56A18.58,18.58,0,0,0,245,198.49Z" transform="translate(-16.39 -0.61)"/><path class="cls-22" d="M245,239.25l-.64,0a6,6,0,0,1-3.93-2.08,80.5,80.5,0,0,0-6.81-6.61c-3.89-3.41-9.77-8.56-9.77-16.32,0-7.92,5.74-14.06,13.35-14.3a14.77,14.77,0,0,1,7.81,1.86,14.76,14.76,0,0,1,7.82-1.86c7.59.24,13.32,6.38,13.32,14.3,0,7.76-5.87,12.91-9.76,16.32a80.64,80.64,0,0,0-6.93,6.74A6,6,0,0,1,245,239.25Zm-7.28-27.35h-.13c-1.16,0-1.74.82-1.74,2.31,0,1.94,2.09,4.15,5.69,7.3q2,1.76,3.47,3.17c1-.94,2.14-2,3.46-3.17,3.6-3.15,5.68-5.36,5.68-7.3,0-1.49-.57-2.27-1.71-2.3a3.05,3.05,0,0,0-1.55.31,6,6,0,0,1-11.77,0A3.08,3.08,0,0,0,237.74,211.9Z" transform="translate(-16.39 -0.61)"/><path class="cls-22" d="M304.58,247.62a30.57,30.57,0,1,1,30.57-30.57A30.6,30.6,0,0,1,304.58,247.62Zm0-49.13a18.57,18.57,0,1,0,18.57,18.56A18.58,18.58,0,0,0,304.58,198.49Z" transform="translate(-16.39 -0.61)"/><path class="cls-22" d="M307.89,238.45h-6.61a6,6,0,0,1-5.72-4.2,5.86,5.86,0,0,1-.22-.92,13,13,0,0,1-10.66-12.74c0-7.06,4.8-11.49,9.43-15.77a27.21,27.21,0,0,0,5-5.65,6,6,0,0,1,10.95,0,27,27,0,0,0,5,5.65h0c4.64,4.28,9.44,8.71,9.44,15.77a13,13,0,0,1-10.67,12.74,4.9,4.9,0,0,1-.21.92A6,6,0,0,1,307.89,238.45Zm2.34-17.22a2.43,2.43,0,0,0,1.31.31,1,1,0,0,0,.95-.95c0-1.69-2.11-3.75-5.58-7-.86-.8-1.63-1.56-2.33-2.27-.69.71-1.46,1.47-2.33,2.27-3.46,3.2-5.57,5.26-5.57,7a1,1,0,0,0,.95.95,2.43,2.43,0,0,0,1.31-.31,7,7,0,0,1,11.29,0Zm0,0ZM310,199.08Zm-10.84,0Z" transform="translate(-16.39 -0.61)"/></g><g class="cls-32"><path class="cls-22" d="M344.41,223.26H329.15a5.25,5.25,0,0,1,0-10.5h15.26a17.55,17.55,0,0,0,17.52-17.53V71.64a17.54,17.54,0,0,0-17.52-17.53H85A17.54,17.54,0,0,0,67.43,71.64V195.23A17.55,17.55,0,0,0,85,212.76h16.4a5.25,5.25,0,1,1,0,10.5H85a28.06,28.06,0,0,1-28-28V71.64a28.06,28.06,0,0,1,28-28H344.41a28.05,28.05,0,0,1,28,28V195.23A28.06,28.06,0,0,1,344.41,223.26Z" transform="translate(-16.39 -0.61)"/><path class="cls-22" d="M125.91,246.87a29.82,29.82,0,1,1,29.81-29.82A29.86,29.86,0,0,1,125.91,246.87Zm0-49.13a19.32,19.32,0,1,0,19.31,19.31A19.34,19.34,0,0,0,125.91,197.74Z" transform="translate(-16.39 -0.61)"/><path class="cls-22" d="M125.91,236.66a5.25,5.25,0,0,1-4.11-2l-11.45-14.37a5.23,5.23,0,0,1,0-6.54l11.45-14.36a5.25,5.25,0,0,1,8.21,0l11.45,14.36a5.23,5.23,0,0,1,0,6.54L130,234.69A5.23,5.23,0,0,1,125.91,236.66Zm-4.74-19.61,4.74,5.94,4.73-5.94-4.73-5.94Z" transform="translate(-16.39 -0.61)"/><path class="cls-22" d="M185.47,246.87a29.82,29.82,0,1,1,29.81-29.82A29.86,29.86,0,0,1,185.47,246.87Zm0-49.13a19.32,19.32,0,1,0,19.31,19.31A19.33,19.33,0,0,0,185.47,197.74Z" transform="translate(-16.39 -0.61)"/><path class="cls-22" d="M188.41,236.85h-5.89a5.26,5.26,0,0,1-4.82-3.16,5.43,5.43,0,0,1-.42-1.71,11.86,11.86,0,0,1-11.39-9.47,11.11,11.11,0,0,1-.24-2.31v0a11.84,11.84,0,0,1,8-11.19,11.83,11.83,0,0,1,23.66,0,11.85,11.85,0,0,1,8,11.19,11.7,11.7,0,0,1-.24,2.4A11.87,11.87,0,0,1,193.65,232a5.17,5.17,0,0,1-.42,1.71A5.25,5.25,0,0,1,188.41,236.85Zm3.74-17.4c0,.19,0,.39,0,.58v.13a1.33,1.33,0,0,0,2.63.26,1,1,0,0,0,0-.22,1.35,1.35,0,0,0-1.33-1.38.84.84,0,0,0-.7.23A7,7,0,0,1,192.15,219.45Zm-16,.8a.89.89,0,0,0,0,.15,1.35,1.35,0,0,0,1.31,1.08,1.33,1.33,0,0,0,1.33-1.33V220a4.87,4.87,0,0,1,0-.54c-.21-.13-.43-.27-.64-.42a.82.82,0,0,0-.67-.26,1.33,1.33,0,0,0-1.33,1.27v.16Zm9.32-12.5a1.33,1.33,0,0,0-1.33,1.33A2.29,2.29,0,0,0,185,211l.42.43a5.56,5.56,0,0,1,.49-.49,2.16,2.16,0,0,0,.86-1.81A1.34,1.34,0,0,0,185.47,207.75Z" transform="translate(-16.39 -0.61)"/><path class="cls-22" d="M245,246.87a29.82,29.82,0,1,1,29.81-29.82A29.85,29.85,0,0,1,245,246.87Zm0-49.13a19.32,19.32,0,1,0,19.31,19.31A19.33,19.33,0,0,0,245,197.74Z" transform="translate(-16.39 -0.61)"/><path class="cls-22" d="M245,238.5l-.56,0a5.22,5.22,0,0,1-3.45-1.83,81.93,81.93,0,0,0-6.87-6.67c-3.79-3.32-9.52-8.34-9.52-15.76,0-7.62,5.31-13.32,12.62-13.55a14,14,0,0,1,7.79,2,14,14,0,0,1,7.79-2c7.3.23,12.6,5.93,12.6,13.55,0,7.42-5.72,12.44-9.51,15.76a82.07,82.07,0,0,0-7,6.8A5.24,5.24,0,0,1,245,238.5Zm-7.28-27.35h-.15c-.76,0-2.47.37-2.47,3.06,0,2.24,2.09,4.49,5.94,7.87,1.56,1.36,2.87,2.58,4,3.64,1.09-1.06,2.4-2.28,4-3.64,3.85-3.38,5.93-5.63,5.93-7.87,0-2.69-1.7-3-2.44-3.05a3.24,3.24,0,0,0-2.26.64,5.25,5.25,0,0,1-10.39,0A3.18,3.18,0,0,0,237.74,211.15Z" transform="translate(-16.39 -0.61)"/><path class="cls-22" d="M304.58,246.87a29.82,29.82,0,1,1,29.82-29.82A29.85,29.85,0,0,1,304.58,246.87Zm0-49.13a19.32,19.32,0,1,0,19.32,19.31A19.33,19.33,0,0,0,304.58,197.74Z" transform="translate(-16.39 -0.61)"/><path class="cls-22" d="M307.89,237.7h-6.61a5.26,5.26,0,0,1-5-3.68,4.77,4.77,0,0,1-.23-1.34,12.22,12.22,0,0,1-10.61-12.09c0-6.73,4.67-11.05,9.19-15.22a27.32,27.32,0,0,0,5.17-5.88,5.27,5.27,0,0,1,9.59,0,27.08,27.08,0,0,0,5.16,5.88h0c4.52,4.17,9.2,8.49,9.2,15.22a12.22,12.22,0,0,1-10.61,12.09,5.16,5.16,0,0,1-.23,1.34A5.26,5.26,0,0,1,307.89,237.7Zm-2.76-18.57a5.25,5.25,0,0,1,4.5,2.56,2.61,2.61,0,0,0,1.91.6,1.71,1.71,0,0,0,1.7-1.7c0-2-2.21-4.18-5.82-7.5h0c-1.08-1-2-1.94-2.84-2.8-.81.86-1.75,1.79-2.84,2.8-3.6,3.32-5.81,5.47-5.81,7.5a1.7,1.7,0,0,0,1.7,1.7,2.55,2.55,0,0,0,1.9-.6,5.26,5.26,0,0,1,5.06-2.53A4.89,4.89,0,0,1,305.13,219.13Zm4.21-19.71Zm-9.51,0Z" transform="translate(-16.39 -0.61)"/></g><g class="cls-33"><path class="cls-22" d="M344.41,222.51H329.15a4.5,4.5,0,0,1,0-9h15.26a18.3,18.3,0,0,0,18.27-18.28V71.64a18.3,18.3,0,0,0-18.27-18.28H85A18.3,18.3,0,0,0,66.68,71.64V195.23A18.3,18.3,0,0,0,85,213.51h16.4a4.5,4.5,0,1,1,0,9H85a27.31,27.31,0,0,1-27.28-27.28V71.64A27.31,27.31,0,0,1,85,44.36H344.41a27.31,27.31,0,0,1,27.27,27.28V195.23A27.31,27.31,0,0,1,344.41,222.51Z" transform="translate(-16.39 -0.61)"/><path class="cls-22" d="M125.91,246.12A29.07,29.07,0,1,1,155,217.05,29.1,29.1,0,0,1,125.91,246.12Zm0-49.13A20.07,20.07,0,1,0,146,217.05,20.09,20.09,0,0,0,125.91,197Z" transform="translate(-16.39 -0.61)"/><path class="cls-22" d="M125.91,235.91a4.5,4.5,0,0,1-3.52-1.69l-11.45-14.36a4.5,4.5,0,0,1,0-5.61l11.45-14.37a4.51,4.51,0,0,1,7,0l11.45,14.37a4.5,4.5,0,0,1,0,5.61l-11.45,14.36A4.51,4.51,0,0,1,125.91,235.91Zm-5.7-18.86,5.7,7.15,5.69-7.15-5.69-7.14Z" transform="translate(-16.39 -0.61)"/><path class="cls-22" d="M185.47,246.12a29.07,29.07,0,1,1,29.06-29.07A29.1,29.1,0,0,1,185.47,246.12Zm0-49.13a20.07,20.07,0,1,0,20.06,20.06A20.09,20.09,0,0,0,185.47,197Z" transform="translate(-16.39 -0.61)"/><path class="cls-22" d="M188.41,236.1h-5.89a4.51,4.51,0,0,1-4.13-2.7,4.46,4.46,0,0,1-.35-2.18h-.56a11.07,11.07,0,0,1-11.08-11v0a11.1,11.1,0,0,1,8-10.64v-.43a11.08,11.08,0,0,1,22.16,0c0,.14,0,.29,0,.43a11.1,11.1,0,0,1,8,10.64,10.83,10.83,0,0,1-.23,2.24,11.09,11.09,0,0,1-10.85,8.84h-.55a4.59,4.59,0,0,1-.36,2.18A4.49,4.49,0,0,1,188.41,236.1Zm3-17.07a4.2,4.2,0,0,1,0,.94,1.09,1.09,0,0,0,0,.18,2.08,2.08,0,0,0,4.12.42,1.67,1.67,0,0,0,0-.37,2.09,2.09,0,0,0-2.08-2.13,1.54,1.54,0,0,0-1.15.38A7.49,7.49,0,0,1,191.36,219Zm-16,1.23c0,.09,0,.19,0,.29a2.08,2.08,0,0,0,4.12-.4,1,1,0,0,0,0-.17,4.6,4.6,0,0,1,0-.91,5.67,5.67,0,0,1-1-.6,1.57,1.57,0,0,0-1.12-.4,2.09,2.09,0,0,0-2.08,2v.17ZM185.47,207a2.08,2.08,0,0,0-2.08,2.08,3,3,0,0,0,1.12,2.41,6.21,6.21,0,0,1,.93,1.12,6.13,6.13,0,0,1,1-1.18,2.83,2.83,0,0,0,1.1-2.35A2.08,2.08,0,0,0,185.47,207Z" transform="translate(-16.39 -0.61)"/><path class="cls-22" d="M245,246.12a29.07,29.07,0,1,1,29.06-29.07A29.1,29.1,0,0,1,245,246.12ZM245,197a20.07,20.07,0,1,0,20.06,20.06A20.09,20.09,0,0,0,245,197Z" transform="translate(-16.39 -0.61)"/><path class="cls-22" d="M245,237.75a3.85,3.85,0,0,1-.48,0,4.53,4.53,0,0,1-3-1.58,81.05,81.05,0,0,0-7-6.74c-3.9-3.43-9.26-8.12-9.26-15.2s5-12.59,11.9-12.8a13.16,13.16,0,0,1,7.76,2.12,13.17,13.17,0,0,1,7.77-2.12c6.87.21,11.87,5.6,11.87,12.8s-5.35,11.77-9.25,15.2a80.22,80.22,0,0,0-7,6.86A4.52,4.52,0,0,1,245,237.75Zm-7.28-27.35h-.18c-1.55,0-3.19,1.07-3.19,3.8,0,2.52,2.18,4.91,6.2,8.43,1.8,1.58,3.28,3,4.46,4.12,1.17-1.15,2.65-2.53,4.45-4.12,4-3.52,6.19-5.91,6.19-8.43,0-2.73-1.63-3.76-3.17-3.8-1.76-.07-2.95.75-3,1.22a4.5,4.5,0,0,1-8.93,0C240.5,211.18,239.4,210.4,237.74,210.4Z" transform="translate(-16.39 -0.61)"/><path class="cls-22" d="M304.58,246.12a29.07,29.07,0,1,1,29.07-29.07A29.1,29.1,0,0,1,304.58,246.12Zm0-49.13a20.07,20.07,0,1,0,20.07,20.06A20.08,20.08,0,0,0,304.58,197Z" transform="translate(-16.39 -0.61)"/><path class="cls-22" d="M307.89,237h-6.61A4.49,4.49,0,0,1,297,233.8a4.39,4.39,0,0,1-.19-1.79,11.47,11.47,0,0,1-10.62-11.42c0-6.41,4.55-10.61,8.95-14.67a27.33,27.33,0,0,0,5.34-6.11,4.51,4.51,0,0,1,8.23,0,27.33,27.33,0,0,0,5.34,6.11h0c4.4,4.06,8.95,8.26,8.95,14.67A11.48,11.48,0,0,1,312.37,232a4.57,4.57,0,0,1-.19,1.79A4.5,4.5,0,0,1,307.89,237Zm-2.76-17.07a4.5,4.5,0,0,1,3.86,2.19,3.1,3.1,0,0,0,2.55,1,2.45,2.45,0,0,0,2.45-2.45c0-2.35-2.3-4.59-6.06-8.05-1.33-1.23-2.43-2.35-3.35-3.36q-1.36,1.51-3.34,3.36c-3.76,3.46-6.06,5.7-6.06,8.05a2.45,2.45,0,0,0,2.45,2.45,3.1,3.1,0,0,0,2.55-1,4.51,4.51,0,0,1,4.41-2.16A4.89,4.89,0,0,1,305.13,219.88Z" transform="translate(-16.39 -0.61)"/></g><g class="cls-34"><path class="cls-22" d="M344.41,221.76H329.15a3.75,3.75,0,0,1,0-7.5h15.26a19,19,0,0,0,19-19V71.64a19,19,0,0,0-19-19H85a19,19,0,0,0-19,19V195.23a19,19,0,0,0,19,19h16.4a3.75,3.75,0,1,1,0,7.5H85a26.56,26.56,0,0,1-26.53-26.53V71.64A26.56,26.56,0,0,1,85,45.11H344.41a26.56,26.56,0,0,1,26.52,26.53V195.23A26.56,26.56,0,0,1,344.41,221.76Z" transform="translate(-16.39 -0.61)"/><path class="cls-22" d="M125.91,245.37a28.32,28.32,0,1,1,28.31-28.32A28.35,28.35,0,0,1,125.91,245.37Zm0-49.13a20.82,20.82,0,1,0,20.81,20.81A20.84,20.84,0,0,0,125.91,196.24Z" transform="translate(-16.39 -0.61)"/><path class="cls-22" d="M125.91,235.16a3.75,3.75,0,0,1-2.93-1.41l-11.46-14.36a3.76,3.76,0,0,1,0-4.68L123,200.35a3.75,3.75,0,0,1,5.86,0l11.45,14.36a3.76,3.76,0,0,1,0,4.68l-11.45,14.36A3.75,3.75,0,0,1,125.91,235.16Zm-6.66-18.11,6.66,8.35,6.65-8.35-6.65-8.34Z" transform="translate(-16.39 -0.61)"/><path class="cls-22" d="M185.47,245.37a28.32,28.32,0,1,1,28.31-28.32A28.35,28.35,0,0,1,185.47,245.37Zm0-49.13a20.82,20.82,0,1,0,20.81,20.81A20.84,20.84,0,0,0,185.47,196.24Z" transform="translate(-16.39 -0.61)"/><path class="cls-22" d="M188.41,235.35h-5.89a3.74,3.74,0,0,1-3.54-5,10.59,10.59,0,0,1-1.5.11,10.36,10.36,0,0,1-10.12-8.26,9.83,9.83,0,0,1-.21-2v0a10.34,10.34,0,0,1,8-10.07c0-.32,0-.65,0-1a10.33,10.33,0,0,1,20.66,0c0,.35,0,.68,0,1a10.35,10.35,0,0,1,8,10.07,10.15,10.15,0,0,1-.21,2.09A10.32,10.32,0,0,1,192,230.37a3.76,3.76,0,0,1-3.55,5Zm2.1-16.78a3.72,3.72,0,0,1,.12,1.33c0,.08,0,.17,0,.25a2.83,2.83,0,0,0,5.6.57,2.44,2.44,0,0,0,.06-.52,2.84,2.84,0,0,0-2.83-2.88,2.24,2.24,0,0,0-1.6.53A5,5,0,0,1,190.51,218.57Zm-15.86,1.69a3.64,3.64,0,0,0,0,.45,2.83,2.83,0,0,0,5.61-.56,1.93,1.93,0,0,0,0-.24,3.56,3.56,0,0,1,.12-1.3,4.93,4.93,0,0,1-1.38-.74,2.26,2.26,0,0,0-1.56-.55,2.83,2.83,0,0,0-2.83,2.76v.18Zm10.61-4.21.18.07.21-.08a3.67,3.67,0,0,1-.14-1.09,4,4,0,0,1,1.45-3,3.59,3.59,0,0,0,1.34-2.9,2.83,2.83,0,0,0-5.66,0A3.77,3.77,0,0,0,184,212a3.87,3.87,0,0,1,1.27,4Z" transform="translate(-16.39 -0.61)"/><path class="cls-22" d="M245,245.37a28.32,28.32,0,1,1,28.31-28.32A28.35,28.35,0,0,1,245,245.37Zm0-49.13a20.82,20.82,0,1,0,20.81,20.81A20.84,20.84,0,0,0,245,196.24Z" transform="translate(-16.39 -0.61)"/><path class="cls-22" d="M245,237a2.75,2.75,0,0,1-.4,0,3.74,3.74,0,0,1-2.48-1.32,83,83,0,0,0-7-6.82c-3.8-3.33-9-7.89-9-14.63,0-7.68,5.62-11.88,11.17-12.05a12.31,12.31,0,0,1,7.74,2.29,12.25,12.25,0,0,1,7.74-2.29c5.54.17,11.15,4.37,11.15,12.05,0,6.74-5.2,11.3-9,14.63a85,85,0,0,0-7.11,6.92A3.74,3.74,0,0,1,245,237Zm-7.29-27.35h-.19c-1.82.05-3.92,1.28-3.92,4.55,0,3.09,2.92,5.9,6.45,9,2.07,1.82,3.71,3.38,5,4.62,1.24-1.24,2.87-2.79,4.95-4.61,3.52-3.1,6.44-5.91,6.44-9,0-3.27-2.09-4.5-3.89-4.55s-3.65.81-3.78,1.88a3.76,3.76,0,0,1-7.45,0C241.17,210.51,239.53,209.65,237.73,209.65Z" transform="translate(-16.39 -0.61)"/><path class="cls-22" d="M304.58,245.37a28.32,28.32,0,1,1,28.32-28.32A28.34,28.34,0,0,1,304.58,245.37Zm0-49.13a20.82,20.82,0,1,0,20.82,20.81A20.83,20.83,0,0,0,304.58,196.24Z" transform="translate(-16.39 -0.61)"/><path class="cls-22" d="M307.89,236.2h-6.61a3.73,3.73,0,0,1-3.56-4.91h-.09a10.71,10.71,0,0,1-10.7-10.7c0-6.08,4.23-10,8.71-14.12s5.52-6.36,5.53-6.38a3.63,3.63,0,0,1,3.41-2.19,3.76,3.76,0,0,1,3.45,2.26h0s1.19,2.34,5.5,6.31h0c4.48,4.14,8.71,8,8.71,14.12a10.71,10.71,0,0,1-10.7,10.7h-.09a3.73,3.73,0,0,1-3.56,4.91Zm-2.76-15.57a3.76,3.76,0,0,1,3.22,1.83,3.77,3.77,0,0,0,3.19,1.33,3.21,3.21,0,0,0,3.2-3.2c0-2.66-2.4-5-6.3-8.6a52.89,52.89,0,0,1-3.86-3.93,50.62,50.62,0,0,1-3.85,3.93c-3.91,3.6-6.3,5.94-6.3,8.6a3.21,3.21,0,0,0,3.2,3.2,3.77,3.77,0,0,0,3.19-1.33,3.76,3.76,0,0,1,3.77-1.79A3.27,3.27,0,0,1,305.13,220.63Z" transform="translate(-16.39 -0.61)"/></g><g class="cls-35"><path class="cls-22" d="M344.41,221H329.15a3,3,0,0,1,0-6h15.26a19.8,19.8,0,0,0,19.77-19.78V71.64a19.8,19.8,0,0,0-19.77-19.78H85A19.8,19.8,0,0,0,65.18,71.64V195.23A19.8,19.8,0,0,0,85,215h16.4a3,3,0,1,1,0,6H85a25.81,25.81,0,0,1-25.78-25.78V71.64A25.8,25.8,0,0,1,85,45.86H344.41a25.8,25.8,0,0,1,25.77,25.78V195.23A25.81,25.81,0,0,1,344.41,221Z" transform="translate(-16.39 -0.61)"/><path class="cls-22" d="M125.91,244.62a27.57,27.57,0,1,1,27.56-27.57A27.6,27.6,0,0,1,125.91,244.62Zm0-49.13a21.57,21.57,0,1,0,21.56,21.56A21.58,21.58,0,0,0,125.91,195.49Z" transform="translate(-16.39 -0.61)"/><path class="cls-22" d="M125.91,234.41a3,3,0,0,1-2.35-1.13l-11.45-14.36a3,3,0,0,1,0-3.74l11.45-14.36a3,3,0,0,1,4.69,0l11.45,14.36a3,3,0,0,1,0,3.74l-11.45,14.36A3,3,0,0,1,125.91,234.41Zm-7.62-17.36,7.62,9.55,7.61-9.55-7.61-9.55Z" transform="translate(-16.39 -0.61)"/><path class="cls-22" d="M185.47,244.62A27.57,27.57,0,1,1,213,217.05,27.6,27.6,0,0,1,185.47,244.62Zm0-49.13A21.57,21.57,0,1,0,207,217.05,21.58,21.58,0,0,0,185.47,195.49Z" transform="translate(-16.39 -0.61)"/><path class="cls-22" d="M188.41,234.6h-5.89a3,3,0,0,1-2.25-5,2.06,2.06,0,0,0,.17-.36,9.36,9.36,0,0,1-3,.47,9.62,9.62,0,0,1-9.39-7.66,9.89,9.89,0,0,1-.19-1.87v0a9.61,9.61,0,0,1,8.1-9.47,11.49,11.49,0,0,1-.11-1.6,9.58,9.58,0,0,1,19.16,0,11.49,11.49,0,0,1-.11,1.6,9.6,9.6,0,0,1,8.09,9.47,8.59,8.59,0,0,1-.2,1.93,9.58,9.58,0,0,1-9.38,7.65,9.36,9.36,0,0,1-3-.47,2.06,2.06,0,0,0,.17.36,3,3,0,0,1-2.25,5Zm2.19-5,0,0Zm-10.27,0,0,0ZM189.47,218a3,3,0,0,1,.42,1.8c0,.11,0,.21,0,.32a3.58,3.58,0,0,0,7.09.72,3.11,3.11,0,0,0,.07-.67,3.6,3.6,0,0,0-3.58-3.63,3,3,0,0,0-2,.68A3.71,3.71,0,0,1,189.47,218Zm-15.57,2.23a4.09,4.09,0,0,0,.07.6,3.58,3.58,0,0,0,7.09-.71c0-.1,0-.2,0-.3a2.92,2.92,0,0,1,.41-1.79,3.76,3.76,0,0,1-2-.79,3,3,0,0,0-2-.7,3.58,3.58,0,0,0-3.58,3.52v.17Zm10.31-3.66a3,3,0,0,1,1.24.35,2.92,2.92,0,0,1,1.25-.37,3,3,0,0,1-.44-1.62,3.29,3.29,0,0,1,1.21-2.43,4.34,4.34,0,0,0,1.58-3.45,3.58,3.58,0,0,0-7.16,0,4.54,4.54,0,0,0,1.57,3.49,3.36,3.36,0,0,1,1.19,2.45A3,3,0,0,1,184.21,216.6Z" transform="translate(-16.39 -0.61)"/><path class="cls-22" d="M245,244.62a27.57,27.57,0,1,1,27.56-27.57A27.6,27.6,0,0,1,245,244.62Zm0-49.13a21.57,21.57,0,1,0,21.56,21.56A21.58,21.58,0,0,0,245,195.49Z" transform="translate(-16.39 -0.61)"/><path class="cls-22" d="M245,236.25h-.32a3.08,3.08,0,0,1-2-1.07,82.12,82.12,0,0,0-7.09-6.89c-4.61-4-8.75-8.16-8.75-14.07,0-7.21,5.26-11.14,10.44-11.3A11.37,11.37,0,0,1,245,205.4a11.39,11.39,0,0,1,7.72-2.49c5.17.16,10.42,4.09,10.42,11.3,0,5.91-4.13,10-8.74,14.07a83.88,83.88,0,0,0-7.18,7A3,3,0,0,1,245,236.25Zm-7.28-27.35h-.23c-2.31.07-4.64,1.74-4.64,5.3,0,3.4,3,6.34,6.71,9.56,2.37,2.07,4.16,3.81,5.45,5.11,1.27-1.3,3.07-3,5.44-5.11,3.67-3.22,6.7-6.16,6.7-9.56,0-3.56-2.32-5.23-4.62-5.3s-4.36,1.05-4.55,2.53a3,3,0,0,1-5.95,0C241.87,210,240,208.9,237.74,208.9Z" transform="translate(-16.39 -0.61)"/><path class="cls-22" d="M304.58,244.62a27.57,27.57,0,1,1,27.57-27.57A27.6,27.6,0,0,1,304.58,244.62Zm0-49.13a21.57,21.57,0,1,0,21.57,21.56A21.58,21.58,0,0,0,304.58,195.49Z" transform="translate(-16.39 -0.61)"/><path class="cls-22" d="M307.89,235.45h-6.61a3,3,0,0,1-2.24-5,13,13,0,0,1-1.41.08,10,10,0,0,1-9.95-9.95c0-5.75,4.11-9.55,8.47-13.56,4.5-4.16,5.69-6.6,5.7-6.62a2.91,2.91,0,0,1,2.73-1.76,3,3,0,0,1,2.76,1.81h0s1.2,2.43,5.68,6.57h0c4.35,4,8.47,7.81,8.47,13.56a10,10,0,0,1-9.95,9.95,12.66,12.66,0,0,1-1.39-.08,3,3,0,0,1,.64,2.92A3,3,0,0,1,307.89,235.45Zm-2.76-14.07a3,3,0,0,1,2.57,1.46,4.46,4.46,0,0,0,3.84,1.7,4,4,0,0,0,3.95-3.95c0-3-2.49-5.41-6.54-9.16h0a48.07,48.07,0,0,1-4.37-4.53,46.54,46.54,0,0,1-4.36,4.53c-4.05,3.75-6.54,6.19-6.54,9.16a4,4,0,0,0,3.95,3.95,4.46,4.46,0,0,0,3.84-1.7,3,3,0,0,1,3.12-1.41A3.29,3.29,0,0,1,305.13,221.38Z" transform="translate(-16.39 -0.61)"/></g><g class="cls-36"><path class="cls-22" d="M344.41,220.26H329.15a2.25,2.25,0,0,1,0-4.5h15.26a20.55,20.55,0,0,0,20.52-20.53V71.64a20.55,20.55,0,0,0-20.52-20.53H85A20.55,20.55,0,0,0,64.43,71.64V195.23A20.55,20.55,0,0,0,85,215.76h16.4a2.25,2.25,0,1,1,0,4.5H85a25.06,25.06,0,0,1-25-25V71.64a25.06,25.06,0,0,1,25-25H344.41a25.05,25.05,0,0,1,25,25V195.23A25.05,25.05,0,0,1,344.41,220.26Z" transform="translate(-16.39 -0.61)"/><path class="cls-22" d="M125.91,243.87a26.82,26.82,0,1,1,26.81-26.82A26.85,26.85,0,0,1,125.91,243.87Zm0-49.13a22.32,22.32,0,1,0,22.31,22.31A22.34,22.34,0,0,0,125.91,194.74Z" transform="translate(-16.39 -0.61)"/><path class="cls-22" d="M125.91,233.66a2.26,2.26,0,0,1-1.76-.84L112.7,218.45a2.23,2.23,0,0,1,0-2.8l11.45-14.36a2.33,2.33,0,0,1,3.52,0l11.45,14.36a2.25,2.25,0,0,1,0,2.8l-11.45,14.37A2.27,2.27,0,0,1,125.91,233.66Zm-8.58-16.61,8.58,10.76,8.57-10.76-8.57-10.75Z" transform="translate(-16.39 -0.61)"/><path class="cls-22" d="M185.47,243.87a26.82,26.82,0,1,1,26.81-26.82A26.85,26.85,0,0,1,185.47,243.87Zm0-49.13a22.32,22.32,0,1,0,22.31,22.31A22.34,22.34,0,0,0,185.47,194.74Z" transform="translate(-16.39 -0.61)"/><path class="cls-22" d="M188.41,233.85h-5.89a2.25,2.25,0,0,1-1.64-3.78,7.11,7.11,0,0,0,.74-2.12,8.76,8.76,0,0,1-4.14,1,8.85,8.85,0,0,1-8.65-7.06,8.38,8.38,0,0,1-.18-1.72v0a8.84,8.84,0,0,1,8.23-8.81,10.45,10.45,0,0,1-.24-2.26,8.83,8.83,0,0,1,17.66,0,9.83,9.83,0,0,1-.25,2.26,8.84,8.84,0,0,1,8.23,8.81,8.53,8.53,0,0,1-.18,1.78,8.85,8.85,0,0,1-8.65,7,8.72,8.72,0,0,1-4.13-1,7.12,7.12,0,0,0,.75,2.13,2.24,2.24,0,0,1-1.66,3.77Zm-1.51-16.53a2.26,2.26,0,0,1,2.24,2.45c0,.12,0,.25,0,.38a4.33,4.33,0,0,0,8.57.87,3.88,3.88,0,0,0,.09-.82,4.34,4.34,0,0,0-4.33-4.38,3.72,3.72,0,0,0-2.5.83,2.36,2.36,0,0,1-3.28,0A2.28,2.28,0,0,1,187,215a2.52,2.52,0,0,1,1-1.89,5.09,5.09,0,0,0,1.82-4,4.33,4.33,0,0,0-8.66,0,5.26,5.26,0,0,0,1.8,4,2.66,2.66,0,0,1,1,1.92,2.29,2.29,0,0,1-.67,1.62,2.36,2.36,0,0,1-3.3,0,3.74,3.74,0,0,0-2.45-.84,4.33,4.33,0,0,0-4.33,4.27v.17a3.27,3.27,0,0,0,.09.75,4.33,4.33,0,0,0,8.57-.86c0-.12,0-.24,0-.36a2.25,2.25,0,0,1,3.36-2.15l.27.16,0,0,.12-.07.16-.1A2.23,2.23,0,0,1,186.9,217.32Z" transform="translate(-16.39 -0.61)"/><path class="cls-22" d="M245,243.87a26.82,26.82,0,1,1,26.81-26.82A26.85,26.85,0,0,1,245,243.87Zm0-49.13a22.32,22.32,0,1,0,22.31,22.31A22.34,22.34,0,0,0,245,194.74Z" transform="translate(-16.39 -0.61)"/><path class="cls-22" d="M245,235.5h-.24a2.25,2.25,0,0,1-1.5-.81,83.76,83.76,0,0,0-7.16-7c-4.48-3.93-8.5-7.92-8.5-13.51,0-6.73,4.89-10.4,9.72-10.55a10.5,10.5,0,0,1,7.69,2.75,10.52,10.52,0,0,1,7.69-2.75c4.82.15,9.7,3.82,9.7,10.55,0,5.59-4,9.58-8.49,13.51a82.8,82.8,0,0,0-7.23,7A2.24,2.24,0,0,1,245,235.5Zm-7.3-27.35h-.24c-2.67.08-5.36,2-5.36,6.05,0,3.72,3.16,6.78,7,10.12,2.71,2.37,4.66,4.29,5.95,5.62,1.28-1.33,3.23-3.24,5.94-5.62,3.8-3.34,7-6.4,7-10.12,0-4.07-2.68-6-5.34-6.05-2.42-.09-5.06,1.09-5.32,3.19a2.25,2.25,0,0,1-4.47,0C242.54,209.32,240.06,208.15,237.72,208.15Z" transform="translate(-16.39 -0.61)"/><path class="cls-22" d="M304.58,243.87a26.82,26.82,0,1,1,26.82-26.82A26.85,26.85,0,0,1,304.58,243.87Zm0-49.13a22.32,22.32,0,1,0,22.32,22.31A22.34,22.34,0,0,0,304.58,194.74Z" transform="translate(-16.39 -0.61)"/><path class="cls-22" d="M307.89,234.7h-6.61a2.25,2.25,0,0,1-1.29-4.09,2.67,2.67,0,0,0,.7-1.24,11.36,11.36,0,0,1-3.06.42,9.21,9.21,0,0,1-9.2-9.2c0-5.42,4-9.11,8.23-13,4.65-4.3,5.86-6.83,5.87-6.85a2.3,2.3,0,0,1,2.05-1.33,2.24,2.24,0,0,1,2.07,1.36h0s1.21,2.52,5.86,6.82h0c4.23,3.9,8.23,7.59,8.23,13a9.21,9.21,0,0,1-9.2,9.2,11.31,11.31,0,0,1-3.06-.42,2.8,2.8,0,0,0,.69,1.24,2.3,2.3,0,0,1,.83,2.53A2.24,2.24,0,0,1,307.89,234.7Zm-2.76-12.57a2.25,2.25,0,0,1,1.93,1.1,5.19,5.19,0,0,0,4.48,2.06,4.71,4.71,0,0,0,4.7-4.7c0-3.28-2.58-5.83-6.78-9.71a44.49,44.49,0,0,1-4.88-5.17,44.24,44.24,0,0,1-4.87,5.17c-4.2,3.88-6.78,6.43-6.78,9.71a4.71,4.71,0,0,0,4.7,4.7,5.19,5.19,0,0,0,4.48-2.06,2.25,2.25,0,0,1,2.48-1A2,2,0,0,1,305.13,222.13Z" transform="translate(-16.39 -0.61)"/></g><path class="cls-22" d="M344.41,219.51H329.15a1.5,1.5,0,0,1,0-3h15.26a21.3,21.3,0,0,0,21.27-21.28V71.64a21.29,21.29,0,0,0-21.27-21.28H85A21.3,21.3,0,0,0,63.68,71.64V195.23A21.3,21.3,0,0,0,85,216.51h16.4a1.5,1.5,0,1,1,0,3H85a24.3,24.3,0,0,1-24.28-24.28V71.64A24.3,24.3,0,0,1,85,47.36H344.41a24.3,24.3,0,0,1,24.27,24.28V195.23A24.3,24.3,0,0,1,344.41,219.51Z" transform="translate(-16.39 -0.61)"/><path class="cls-22" d="M125.91,243.12A26.07,26.07,0,1,1,152,217.05,26.09,26.09,0,0,1,125.91,243.12Zm0-49.13A23.07,23.07,0,1,0,149,217.05,23.09,23.09,0,0,0,125.91,194Z" transform="translate(-16.39 -0.61)"/><path class="cls-22" d="M125.91,232.91a1.5,1.5,0,0,1-1.18-.56L113.28,218a1.52,1.52,0,0,1,0-1.87l11.45-14.37a1.56,1.56,0,0,1,2.35,0l11.45,14.37a1.49,1.49,0,0,1,0,1.87l-11.45,14.36A1.48,1.48,0,0,1,125.91,232.91Zm-9.54-15.86,9.54,12,9.53-12-9.53-12Z" transform="translate(-16.39 -0.61)"/><path class="cls-22" d="M185.47,243.12a26.07,26.07,0,1,1,26.06-26.07A26.09,26.09,0,0,1,185.47,243.12Zm0-49.13a23.07,23.07,0,1,0,23.06,23.06A23.09,23.09,0,0,0,185.47,194Z" transform="translate(-16.39 -0.61)"/><path class="cls-22" d="M188.41,233.1h-5.89a1.5,1.5,0,0,1-1.38-.9,1.53,1.53,0,0,1,.28-1.62c.38-.4.87-1.85,1.31-4.29a8,8,0,0,1-5.25,1.94,8.12,8.12,0,0,1-7.92-6.46,8.36,8.36,0,0,1-.16-1.57v0a8.09,8.09,0,0,1,8.08-8.08h.39a9.2,9.2,0,0,1-.48-3,8.08,8.08,0,0,1,16.16,0,9.23,9.23,0,0,1-.49,3h.39a8.08,8.08,0,0,1,8.08,8.08,7.77,7.77,0,0,1-.16,1.63,8.08,8.08,0,0,1-13.17,4.51c.45,2.44.93,3.88,1.31,4.29a1.5,1.5,0,0,1-1.1,2.52Zm-3.51-3H186a18.83,18.83,0,0,1-.57-2.15C185.29,228.76,185.1,229.48,184.9,230.1Zm2-12a1.5,1.5,0,0,1,1.49,1.63c0,.15,0,.3,0,.45a5.08,5.08,0,0,0,10.06,1,4.63,4.63,0,0,0,.1-1,5.1,5.1,0,0,0-5.08-5.13,4.52,4.52,0,0,0-3,1,1.61,1.61,0,0,1-2.29,0,1.52,1.52,0,0,1-.44-1.1,1.8,1.8,0,0,1,.74-1.36,5.88,5.88,0,0,0,2.05-4.55,5.08,5.08,0,0,0-10.16,0,6,6,0,0,0,2,4.56,1.9,1.9,0,0,1,.74,1.39,1.51,1.51,0,0,1-.45,1.08c-.35.36-1.13.83-2.32-.05a4.49,4.49,0,0,0-2.9-1,5.08,5.08,0,0,0-5.08,5v.14a4.78,4.78,0,0,0,.1.91,5.08,5.08,0,0,0,10.06-1c0-.14,0-.29,0-.43a1.5,1.5,0,0,1,2.24-1.43l.25.15a3.91,3.91,0,0,0,.42.24,5.43,5.43,0,0,0,.51-.29l.16-.1A1.56,1.56,0,0,1,186.9,218.07Z" transform="translate(-16.39 -0.61)"/><path class="cls-22" d="M245,243.12a26.07,26.07,0,1,1,26.06-26.07A26.09,26.09,0,0,1,245,243.12ZM245,194a23.07,23.07,0,1,0,23.06,23.06A23.09,23.09,0,0,0,245,194Z" transform="translate(-16.39 -0.61)"/><path class="cls-22" d="M245,234.75h-.16a1.54,1.54,0,0,1-1-.56,85.61,85.61,0,0,0-7.24-7c-4.34-3.8-8.24-7.66-8.24-12.94,0-6.25,4.53-9.66,9-9.8a9.5,9.5,0,0,1,7.67,3.1,9.53,9.53,0,0,1,7.67-3.1c4.46.14,9,3.55,9,9.8,0,5.29-3.72,9-8.23,12.94a82.86,82.86,0,0,0-7.3,7.11A1.53,1.53,0,0,1,245,234.75Zm-7.31-27.35h-.25c-2.93.09-6.09,2.26-6.09,6.8,0,4,3.27,7.22,7.22,10.69,3.09,2.71,5.19,4.82,6.44,6.14,1.23-1.31,3.33-3.42,6.43-6.14,3.95-3.47,7.21-6.66,7.21-10.69,0-4.54-3.15-6.71-6.07-6.8-2.72-.1-5.77,1.32-6.09,3.84a1.5,1.5,0,0,1-3,0C243.23,208.81,240.38,207.4,237.71,207.4Z" transform="translate(-16.39 -0.61)"/><path class="cls-22" d="M304.58,243.12a26.07,26.07,0,1,1,26.07-26.07A26.09,26.09,0,0,1,304.58,243.12Zm0-49.13a23.07,23.07,0,1,0,23.07,23.06A23.09,23.09,0,0,0,304.58,194Z" transform="translate(-16.39 -0.61)"/><path class="cls-22" d="M307.89,234h-6.61a1.48,1.48,0,0,1-1.43-1,1.51,1.51,0,0,1,.57-1.68c.52-.36,1-1.38,1.4-3.05a10.26,10.26,0,0,1-4.19.87,8.46,8.46,0,0,1-8.45-8.45c0-5.09,3.7-8.51,8-12.46,4.81-4.44,6-7.06,6-7.09a1.52,1.52,0,0,1,1.37-.89,1.5,1.5,0,0,1,1.38.91s1.23,2.63,6,7.07h0c4.29,4,8,7.37,8,12.46a8.46,8.46,0,0,1-8.45,8.45,10.23,10.23,0,0,1-4.19-.87c.41,1.67.88,2.69,1.39,3.05a1.5,1.5,0,0,1-.85,2.73Zm-3.81-3h1a15.05,15.05,0,0,1-.5-1.48C304.43,230,304.26,230.49,304.08,231Zm1.05-8.07a1.49,1.49,0,0,1,1.28.73,5.86,5.86,0,0,0,5.13,2.43,5.46,5.46,0,0,0,5.45-5.45c0-3.78-3.1-6.64-7-10.26h0a42.1,42.1,0,0,1-5.39-5.85,41.24,41.24,0,0,1-5.38,5.85c-3.92,3.62-7,6.48-7,10.26a5.46,5.46,0,0,0,5.45,5.45,5.83,5.83,0,0,0,5.12-2.43,1.51,1.51,0,0,1,1.79-.64h.09A1.43,1.43,0,0,1,305.13,222.88Z" transform="translate(-16.39 -0.61)"/><path class="cls-37" d="M344.41,218.51H329.15a.5.5,0,0,1-.5-.5.5.5,0,0,1,.5-.5h15.26a22.3,22.3,0,0,0,22.27-22.28V71.64a22.3,22.3,0,0,0-22.27-22.28H85A22.3,22.3,0,0,0,62.68,71.64V195.23A22.31,22.31,0,0,0,85,217.51h16.4a.5.5,0,0,1,.5.5.5.5,0,0,1-.5.5H85a23.31,23.31,0,0,1-23.28-23.28V71.64A23.3,23.3,0,0,1,85,48.36H344.41a23.3,23.3,0,0,1,23.27,23.28V195.23A23.31,23.31,0,0,1,344.41,218.51Z" transform="translate(-16.39 -0.61)"/><path class="cls-37" d="M125.91,242.12A25.07,25.07,0,1,1,151,217.05,25.1,25.1,0,0,1,125.91,242.12Zm0-49.13A24.07,24.07,0,1,0,150,217.05,24.09,24.09,0,0,0,125.91,193Z" transform="translate(-16.39 -0.61)"/><path class="cls-37" d="M125.91,231.91a.5.5,0,0,1-.39-.18l-11.45-14.37a.48.48,0,0,1,0-.62l11.45-14.36a.51.51,0,0,1,.78,0l11.45,14.36a.51.51,0,0,1,0,.62L126.3,231.73A.53.53,0,0,1,125.91,231.91ZM115.1,217.05l10.81,13.56,10.81-13.56-10.81-13.56Z" transform="translate(-16.39 -0.61)"/><path class="cls-37" d="M185.47,242.12a25.07,25.07,0,1,1,25.06-25.07A25.1,25.1,0,0,1,185.47,242.12Zm0-49.13a24.07,24.07,0,1,0,24.06,24.06A24.09,24.09,0,0,0,185.47,193Z" transform="translate(-16.39 -0.61)"/><path class="cls-37" d="M188.41,232.1h-5.89a.49.49,0,0,1-.46-.3.49.49,0,0,1,.1-.54c.86-.92,1.68-4.49,2.22-9.5a7.08,7.08,0,1,1-6.9-8.69,6.92,6.92,0,0,1,2.14.33,7.78,7.78,0,0,1-1.23-4.32,7.08,7.08,0,0,1,14.16,0,7.68,7.68,0,0,1-1.22,4.29,7.21,7.21,0,0,1,2.12-.3,7.08,7.08,0,1,1-6.89,8.7c.53,5,1.36,8.57,2.22,9.49a.51.51,0,0,1,.09.54A.49.49,0,0,1,188.41,232.1Zm-5-1h4.06c-1.1-2.21-1.72-6.91-2-10.16C185.15,224.19,184.53,228.89,183.44,231.1Zm3.46-12a.5.5,0,0,1,.26.08.52.52,0,0,1,.24.47,4.58,4.58,0,0,0,0,.53,6.08,6.08,0,0,0,12,1.22,5.81,5.81,0,0,0,.12-1.17,6.1,6.1,0,0,0-6.08-6.13,5.42,5.42,0,0,0-3.56,1.18c-.23.18-.63.48-1,.13a.5.5,0,0,1-.15-.38c0-.25.15-.39.42-.64a6.88,6.88,0,0,0,2.37-5.28,6.08,6.08,0,0,0-12.16,0,6.94,6.94,0,0,0,2.33,5.27c.27.28.43.42.43.68a.55.55,0,0,1-.16.38c-.34.35-.75.05-1-.15a5.5,5.5,0,0,0-3.5-1.19,6.09,6.09,0,0,0-6.08,6.08,6,6,0,0,0,.12,1.22,6.08,6.08,0,0,0,12-1.22c0-.17,0-.34,0-.51a.5.5,0,0,1,.74-.48l.23.14a4.48,4.48,0,0,0,.69.35.27.27,0,0,0,.53,0,3.7,3.7,0,0,0,.76-.4l.15-.09A.5.5,0,0,1,186.9,219.07Z" transform="translate(-16.39 -0.61)"/><path class="cls-37" d="M245,242.12a25.07,25.07,0,1,1,25.06-25.07A25.1,25.1,0,0,1,245,242.12ZM245,193a24.07,24.07,0,1,0,24.06,24.06A24.09,24.09,0,0,0,245,193Z" transform="translate(-16.39 -0.61)"/><path class="cls-37" d="M245,233.75H245a.49.49,0,0,1-.35-.2,84.83,84.83,0,0,0-7.35-7.15c-4.32-3.79-7.9-7.32-7.9-12.19,0-5.88,4.16-8.68,8-8.8,3.49-.12,6.46,1.49,7.64,3.93,1.17-2.44,4.17-4.05,7.63-3.93,3.86.12,8,2.92,8,8.8,0,4.87-3.57,8.4-7.89,12.19a83.13,83.13,0,0,0-7.38,7.19A.55.55,0,0,1,245,233.75Zm-7.3-27.35h-.3c-3.39.1-7,2.59-7,7.8,0,4.45,3.43,7.81,7.56,11.44a91.89,91.89,0,0,1,7.1,6.86,85.61,85.61,0,0,1,7.09-6.86c4.13-3.63,7.55-7,7.55-11.44,0-5.21-3.65-7.7-7-7.8-3.14-.11-6.7,1.51-7.11,4.72a.5.5,0,0,1-1,0C244.14,208,240.78,206.4,237.72,206.4Z" transform="translate(-16.39 -0.61)"/><path class="cls-37" d="M304.58,242.12a25.07,25.07,0,1,1,25.07-25.07A25.09,25.09,0,0,1,304.58,242.12Zm0-49.13a24.07,24.07,0,1,0,24.07,24.06A24.08,24.08,0,0,0,304.58,193Z" transform="translate(-16.39 -0.61)"/><path class="cls-37" d="M307.89,233h-6.61a.5.5,0,0,1-.48-.35A.52.52,0,0,1,301,232c1.25-.86,1.92-3.78,2.29-6a8.49,8.49,0,0,1-5.65,2,7.46,7.46,0,0,1-7.45-7.45c0-4.65,3.55-7.93,7.66-11.73,5-4.64,6.27-7.38,6.28-7.41a.53.53,0,0,1,.92,0s1.26,2.77,6.28,7.41h0c4.12,3.8,7.67,7.08,7.67,11.73a7.47,7.47,0,0,1-7.45,7.45,8.49,8.49,0,0,1-5.65-2c.37,2.2,1,5.12,2.28,6a.51.51,0,0,1,.2.56A.5.5,0,0,1,307.89,233Zm-5.45-1h4.29c-1.13-1.63-1.68-4.53-2.1-7.5a.5.5,0,0,1,.93-.33,6.83,6.83,0,0,0,6,2.92,6.47,6.47,0,0,0,6.45-6.45c0-4.22-3.24-7.21-7.34-11h0a34.37,34.37,0,0,1-6.07-6.92,34.19,34.19,0,0,1-6.06,6.92c-4.1,3.78-7.34,6.77-7.34,11a6.47,6.47,0,0,0,6.45,6.45,6.83,6.83,0,0,0,6-2.92.51.51,0,0,1,.6-.21.51.51,0,0,1,.33.54C304.12,227.42,303.57,230.32,302.44,232Z" transform="translate(-16.39 -0.61)"/><text class="cls-38" transform="translate(65.58 108.07) scale(1.28 1)">C<tspan class="cls-39" x="34.8" y="0">ASINO</tspan></text><text class="cls-40" transform="translate(163.12 128.19) scale(1.63 1)">OF</text><text class="cls-41" transform="translate(100.52 178.04) scale(1.62 1)">J<tspan class="cls-42" x="24.26" y="0">O</tspan><tspan x="67.6" y="0">Y</tspan></text></g></g></svg>