<svg id="Layer_1" data-name="Layer 1" xmlns="http://www.w3.org/2000/svg" viewBox="0 0 1058.9 784.61"><defs><style>.cls-1{fill:#fff;}.cls-2{fill:red;}</style></defs><g id="Layer_2" data-name="Layer 2"><path class="cls-1" d="M52.82,661.34c0-1.85-.81-2.74-2.46-2.67L40,659.08c-1.65.06-2.48,1-2.48,2.92q-.14,74.58-.29,149.18c0,1.88.82,2.62,2.46,2.2,4.1-1,6.16-1.55,10.27-2.56a3.09,3.09,0,0,0,2.47-3.38c.06-22.53.09-33.81.15-56.35C65.49,749,72,747.94,84.88,746l-.3,69a83.86,83.86,0,0,1-19.16,16.31,85.7,85.7,0,0,1-20.89,9.57,59.55,59.55,0,0,1-20.83,2.28,36.12,36.12,0,0,1-19-6.78V646.64A51.55,51.55,0,0,1,24,634,60.79,60.79,0,0,1,45,630.13a65.6,65.6,0,0,1,21.07,3.66A56,56,0,0,1,85.32,645L85,713.19c-12.94,1.43-19.42,2.15-32.35,3.68C52.73,694.65,52.76,683.54,52.82,661.34Z" transform="translate(-4.68 -58.7)"/><path class="cls-1" d="M183.25,803.39c-13.14,2.65-19.71,4-32.83,6.91.2-27.82.29-41.73.48-69.53l-15.28,2.1c-.19,28.35-.28,42.52-.46,70.87-13.11,3-19.64,4.57-32.74,7.82l.93-177a53.09,53.09,0,0,1,19.45-11.07,69.62,69.62,0,0,1,21.22-3.4,74.83,74.83,0,0,1,21.17,3.22,57.35,57.35,0,0,1,19.31,9.87Q183.87,723.29,183.25,803.39ZM151.1,714c.15-22.57.24-33.84.39-56.41,0-1.62-.81-2.41-2.46-2.36l-10.37.32a2.28,2.28,0,0,0-2.5,2.55c-.15,23-.23,34.5-.38,57.49Z" transform="translate(-4.68 -58.7)"/><path class="cls-1" d="M233.68,692.32a7.26,7.26,0,0,0,.32,3,3.8,3.8,0,0,0,1.68,1.1c17.78,7.07,26.68,10.45,44.5,17a45.06,45.06,0,0,1,1,11.31c-.18,21.19-.28,31.78-.46,53a76.22,76.22,0,0,1-19.28,11.85,93.49,93.49,0,0,1-21,6.35,74.65,74.65,0,0,1-20.84.67,46.11,46.11,0,0,1-19-6.2c.14-17,.22-25.45.35-42.42,13.06-1.72,19.6-2.55,32.7-4.11-.09,11.32-.16,17-.25,28.32,0,1.48.81,2.09,2.47,1.84l10.16-1.5c1.65-.24,2.48-1.08,2.49-2.54.13-13.41.17-20.13.29-33.54a13,13,0,0,0-.3-3.89c-.23-.56-1.15-1.1-2.8-1.68-17.44-6.23-26.16-9.46-43.58-16.22a46.79,46.79,0,0,1-.63-5.89c-.14-2.42-.2-4.57-.17-6.4.2-23.75.29-35.62.49-59.37a56.06,56.06,0,0,1,19.13-9.8,74,74,0,0,1,20.88-3,79.48,79.48,0,0,1,20.95,2.9A60,60,0,0,1,281.92,642l-.35,40.11c-13.09.63-19.63,1-32.71,1.68.11-11.59.15-17.39.24-29,0-1.45-.8-2.16-2.46-2.11-4.06.09-6.09.13-10.14.24-1.65,0-2.49.8-2.5,2.27C233.86,670,233.8,677.44,233.68,692.32Z" transform="translate(-4.68 -58.7)"/><path class="cls-1" d="M332,779.9c-13.31,1.52-20,2.36-33.26,4.14q.64-75.48,1.28-151l33.14-.08Q332.6,706.43,332,779.9Z" transform="translate(-4.68 -58.7)"/><path class="cls-1" d="M432.64,771.22c-13.33.78-20,1.21-33.34,2.24.16-29.09.25-43.63.43-72.72-6.09-8.28-9.14-12.45-15.24-20.85-.24,37.93-.38,56.9-.62,94.83-13.24,1.14-19.86,1.76-33.08,3.13q.54-72.47,1.09-144.92l27.74,0c8.22,12,12.34,17.86,20.57,29.56.07-11.83.1-17.75.18-29.59l32.92,0C433,688.16,432.91,715.84,432.64,771.22Z" transform="translate(-4.68 -58.7)"/><path class="cls-1" d="M491.65,771.44a97.67,97.67,0,0,1-21.32-1.9,60.52,60.52,0,0,1-19.5-7.22c.2-48.64.29-73,.49-121.61a61.54,61.54,0,0,1,19.43-8.05A92.36,92.36,0,0,1,492,630.11a93.33,93.33,0,0,1,21.19,2.53,62.43,62.43,0,0,1,19.39,7.92c0,48,0,71.94,0,119.9a65.4,65.4,0,0,1-19.52,8A100,100,0,0,1,491.65,771.44Zm5.26-19.38c1.66,0,2.49-.66,2.49-1.92.06-39.55.11-59.33.17-98.88,0-1.24-.83-1.86-2.48-1.86l-10.39,0c-1.66,0-2.48.63-2.48,1.89-.09,39.65-.15,59.48-.24,99.15,0,1.26.83,1.86,2.5,1.82C490.64,752.18,492.73,752.14,496.91,752.06Z" transform="translate(-4.68 -58.7)"/><path class="cls-2" d="M619.93,773a101.36,101.36,0,0,1-21.34-3.47A67,67,0,0,1,579.05,761c-.11-48.16-.15-72.25-.26-120.41a62.79,62.79,0,0,1,19.37-7.94,92.2,92.2,0,0,1,21.19-2.55,90.81,90.81,0,0,1,21.21,2.58,61,61,0,0,1,19.43,8.2c.29,49.54.43,74.3.72,123.84a58.47,58.47,0,0,1-19.47,6.89A93.2,93.2,0,0,1,619.93,773Zm5.13-19.27c1.67.08,2.5-.51,2.48-1.78-.18-40.17-.25-60.26-.44-100.41,0-1.28-.83-1.91-2.49-1.93l-10.39-.07c-1.66,0-2.48.62-2.48,1.87.15,39.95.23,59.93.38,99.89,0,1.25.83,1.92,2.5,2Z" transform="translate(-4.68 -58.7)"/><path class="cls-2" d="M678,632.85c25.72,0,38.57.06,64.27.12.07,10.16.12,15.25.19,25.42-12.54-.29-18.81-.41-31.36-.65.11,14.69.17,22,.27,36.73,11.3.5,17,.77,28.25,1.35.07,9.32.1,14,.18,23.31-11.31-.79-16.95-1.15-28.26-1.84.18,24,.26,36,.44,60-13.23-1.33-19.84-1.93-33.09-3Q678.43,703.56,678,632.85Z" transform="translate(-4.68 -58.7)"/><path class="cls-2" d="M832.24,633.22l32.92.1q.63,78.42,1.28,156.82a45.81,45.81,0,0,1-19.29,6.15,78.81,78.81,0,0,1-21.18-.71,96.44,96.44,0,0,1-21.25-6.38,75.17,75.17,0,0,1-19.51-11.85c-.2-22.41-.29-33.61-.48-56,13.18,1.11,19.78,1.7,32.95,2.94.15,18.18.24,27.27.39,45.45,0,1.45.85,2.3,2.5,2.53,4.15.6,6.23.91,10.38,1.53,1.65.24,2.47-.37,2.47-1.85C833,716.46,832.71,688.72,832.24,633.22Z" transform="translate(-4.68 -58.7)"/><path class="cls-2" d="M925,815.33a92.14,92.14,0,0,1-21.15-7.93,79.42,79.42,0,0,1-19.42-13.93q-.59-75.12-1.18-150.25a57.5,57.5,0,0,1,19.31-9.85,74.92,74.92,0,0,1,21.18-3.23A69.73,69.73,0,0,1,945,633.55a53.23,53.23,0,0,1,19.45,11.06q.44,83,.88,166a40.49,40.49,0,0,1-19.21,6.28A70.45,70.45,0,0,1,925,815.33Zm5-24.23c1.65.33,2.47-.34,2.45-2-.35-52.4-.51-78.6-.85-131a2.28,2.28,0,0,0-2.49-2.55c-4.15-.14-6.22-.2-10.37-.32a2.1,2.1,0,0,0-2.47,2.36c.36,51.42.55,77.13.89,128.55a2.73,2.73,0,0,0,2.5,2.9C923.81,789.86,925.87,790.26,930,791.1Z" transform="translate(-4.68 -58.7)"/><path class="cls-2" d="M1028.43,755.48c1.63.29,2.46-.51,2.45-2.39-.09-47.6-.14-71.39-.23-119l32.92.19V775.92a28.17,28.17,0,0,1-11,6.76,40.67,40.67,0,0,1-13.29,2.06c0,22.7,0,34,.1,56.76-12.66-3.71-19-5.51-31.68-9-.08-21.74-.11-32.62-.19-54.35A67,67,0,0,1,994.11,771,54.06,54.06,0,0,1,983,760.7c-.22-50.75-.33-76.13-.56-126.88,13.17.06,19.76.09,32.93.17.13,46.62.19,69.92.33,116.54,0,1.85.83,2.91,2.47,3.18Z" transform="translate(-4.68 -58.7)"/><path class="cls-1" d="M678.93,264.27,568.32,200.41a68.45,68.45,0,0,0-68.45,0L389.26,264.27A68.46,68.46,0,0,0,355,323.54V451.25a68.45,68.45,0,0,0,34.22,59.28l110.61,63.85a68.39,68.39,0,0,0,68.45,0l110.61-63.85a68.47,68.47,0,0,0,34.22-59.28V323.54A68.46,68.46,0,0,0,678.93,264.27ZM522.7,547.91c0,5.8-6.27,9.69-11.31,6.8l-.1-.06L400.67,490.79a45.65,45.65,0,0,1-22.82-39.52V323.43c0-5.79,6.51-9.29,11.53-6.38l129.41,74.71a7.76,7.76,0,0,1,3.89,6.72V547.91ZM530.22,372,400.81,297.28c-5-2.91-5.25-10.28-.24-13.18l.1-.07,110.62-63.85a45.61,45.61,0,0,1,45.64,0L667.55,284l.1.07c5,2.92,4.79,10.29-.24,13.18L538,372A7.78,7.78,0,0,1,530.22,372Zm160.12,79.28a45.62,45.62,0,0,1-22.82,39.52L556.9,554.65l-.1.06c-5,2.89-11.31-1-11.31-6.8V398.48a7.75,7.75,0,0,1,3.89-6.72L678.79,317c5-2.91,11.52.59,11.54,6.39V451.27Z" transform="translate(-4.68 -58.7)"/><path class="cls-2" d="M645.34,378.71c-11.5,3.69-19.77,14-28.38,28.54-.88-1.22-1.36-2.78-2.49-3.33-7.44-3.52-16.22-2.17-26.52,7-10,8.87-16.29,19.54-18.41,31.49-2.16,12.19,1.52,19.79,7.1,25.63,10,10.43,24.19,13.89,39.26,15.82,2.62.21,3.68-1.67,4.76-3.15C631,466.44,641.92,452.42,651,437.6a134.52,134.52,0,0,0,14.18-32.3C671,384.58,661.75,373.43,645.34,378.71Z" transform="translate(-4.68 -58.7)"/><path class="cls-1" d="M454.63,389.05c-1.9-2.92-3.33-6.09-4.87-8.93l-25.07,9.76c-3.67,1.44-7.53,2.6-11,4.4-7.23,3.77-10.73,11-9.6,22.54,1.52,15.35,12.34,30,26.54,35.36,4.31,1.6,8.38,1.84,13.53,2.92-3.07,7.22-6,14.14-8.95,21l27.25,15.47c-3-10.49-6-20.63-9.42-32.56,2.53,2.84,3.44,3.83,4.32,4.86,17.92,20.79,35.84,21,36.38.59.34-12.2-5.85-24.75-14.25-37.55S462.87,401.7,454.63,389.05Z" transform="translate(-4.68 -58.7)"/><path class="cls-2" d="M486.22,327.11l84.29-8.05C574.34,299.37,578.11,280,582,260c-28.52,2.71-56,5.33-84.29,8C493.86,287.76,490.1,307.13,486.22,327.11Z" transform="translate(-4.68 -58.7)"/><path class="cls-1" d="M550.49,138.07c0,29.43-7.33,30.74-16.38,30.74s-16.38-1.31-16.38-30.74,7.33-75.86,16.38-75.86S550.49,108.63,550.49,138.07Z" transform="translate(-4.68 -58.7)"/><path class="cls-2" d="M409.48,137.81c22.19,38.44,23.8,55.88,16,60.41s-22.13-5.59-44.34-44S337.22,63.52,345.05,59,387.28,99.36,409.48,137.81Z" transform="translate(-4.68 -58.7)"/><path class="cls-1" d="M326.86,248.27c25.48,14.71,23,21.72,18.43,29.56s-9.32,13.53-34.81-1.18-62-44.29-57.52-52.11S301.37,233.56,326.86,248.27Z" transform="translate(-4.68 -58.7)"/><path class="cls-2" d="M256.13,370.25c44.39,0,60.28,7.32,60.28,16.37S300.52,403,256.13,403s-100.47-7.32-100.47-16.38S211.73,370.25,256.13,370.25Z" transform="translate(-4.68 -58.7)"/><path class="cls-1" d="M310.49,497c25.49-14.71,30.29-9,34.82-1.18s7.07,14.84-18.44,29.56S257.5,557,253,549.15,285,511.75,310.49,497Z" transform="translate(-4.68 -58.7)"/><path class="cls-1" d="M741.36,525.39c-25.49-14.71-23-21.72-18.43-29.56s9.32-13.53,34.81,1.18,62,44.29,57.52,52.11S766.85,540.1,741.36,525.39Z" transform="translate(-4.68 -58.7)"/><path class="cls-2" d="M812.09,403.41c-44.39,0-60.28-7.33-60.28-16.38s15.89-16.37,60.28-16.37S912.56,378,912.56,387,856.49,403.41,812.09,403.41Z" transform="translate(-4.68 -58.7)"/><path class="cls-1" d="M757.72,276.62c-25.48,14.71-30.28,9-34.81,1.18s-7.07-14.83,18.44-29.56,69.37-31.59,73.89-23.75S783.23,261.91,757.72,276.62Z" transform="translate(-4.68 -58.7)"/><path class="cls-2" d="M687.45,154.38c-22.19,38.45-36.49,48.54-44.33,44s-6.24-22,16-60.41,56.58-83.34,64.42-78.81S709.65,115.94,687.45,154.38Z" transform="translate(-4.68 -58.7)"/></g></svg>